<svg width="189" height="189" viewBox="0 0 189 189" fill="none" xmlns="http://www.w3.org/2000/svg">
<path d="M35.3098 19.2898C34.5907 27.8273 25.6892 29.1746 25.6892 29.1746C33.3319 29.5342 35.2367 39.5541 35.2367 39.5541C35.3998 32.4098 45.0765 29.0691 45.0765 29.0691C37.8273 28.6357 35.3098 19.2898 35.3098 19.2898Z" fill="#D6DF58"/>
<path d="M45.1429 27.9639C38.7871 27.5837 36.4024 19.0868 36.3795 19.0004C36.2378 18.4822 35.752 18.1396 35.2101 18.1868C34.6749 18.2356 34.2518 18.6608 34.2068 19.1961C33.5719 26.7383 25.8502 28.0289 25.5239 28.0791C24.9606 28.1647 24.5545 28.6631 24.584 29.2315C24.6136 29.8007 25.0691 30.254 25.6383 30.2806C32.3072 30.5951 34.1322 39.6708 34.1492 39.7631C34.2511 40.288 34.7103 40.6616 35.2367 40.6616C35.2677 40.6616 35.2987 40.6601 35.3297 40.6579C35.8945 40.6107 36.3316 40.1463 36.3448 39.58C36.4881 33.298 45.3504 30.147 45.4397 30.1152C45.9388 29.9425 46.2459 29.4405 46.1736 28.9178C46.1005 28.3943 45.6693 27.9949 45.1429 27.9639ZM35.1215 35.6036C34.1197 33.2921 32.3818 30.5036 29.5172 29.0492C31.6826 28.0119 34.2511 26.1595 35.5756 22.9406C36.7214 25.2072 38.6778 28.0207 41.7321 29.3814C39.5113 30.5914 36.6187 32.6335 35.1215 35.6036Z" fill="#3A312A"/>
<path d="M19.2817 31.8265C18.773 37.8649 12.477 38.8181 12.477 38.8181C17.8826 39.072 19.23 46.1595 19.23 46.1595C19.3452 41.1067 26.1898 38.7435 26.1898 38.7435C21.0632 38.4371 19.2817 31.8265 19.2817 31.8265Z" fill="#D6DF58"/>
<path d="M26.2555 37.6376C21.9956 37.3829 20.3662 31.594 20.35 31.5357C20.2104 31.0174 19.7136 30.6734 19.1828 30.7221C18.6468 30.7701 18.223 31.1968 18.178 31.7321C17.7505 36.8048 12.5301 37.6871 12.3116 37.7218C11.7483 37.8074 11.3422 38.3057 11.3717 38.8742C11.4013 39.4434 11.8568 39.8967 12.426 39.9233C16.8838 40.133 18.1314 46.3058 18.1425 46.3663C18.2429 46.8927 18.7029 47.267 19.23 47.267C19.2603 47.267 19.2913 47.2655 19.3223 47.2633C19.8871 47.2168 20.3249 46.7517 20.3382 46.1847C20.4341 41.9698 26.4925 39.8104 26.5515 39.7897C27.0514 39.6177 27.3592 39.1156 27.2876 38.5922C27.2145 38.0688 26.7826 37.6686 26.2555 37.6376ZM19.1761 42.655C18.4939 41.2626 17.4478 39.741 15.8915 38.7568C17.2618 37.9883 18.6224 36.8144 19.4891 35.126C20.2703 36.5095 21.45 38.0459 23.1392 38.9835C21.7727 39.7956 20.1927 41.0071 19.1761 42.655Z" fill="#3A312A"/>
<path d="M19.2817 12.1455C18.773 18.1839 12.477 19.1378 12.477 19.1378C17.8826 19.3917 19.23 26.4792 19.23 26.4792C19.3452 21.4264 26.1898 19.0632 26.1898 19.0632C21.0632 18.7561 19.2817 12.1455 19.2817 12.1455Z" fill="#D6DF58"/>
<path d="M26.2555 17.9572C21.9956 17.7025 20.3662 11.9136 20.35 11.8553C20.2104 11.337 19.7136 10.9937 19.1828 11.0417C18.6468 11.0897 18.223 11.5164 18.178 12.0517C17.7505 17.1237 12.5301 18.0066 12.3116 18.0413C11.7483 18.127 11.3422 18.6253 11.3717 19.1938C11.4013 19.763 11.8568 20.2163 12.426 20.2429C16.8838 20.4526 18.1314 26.6253 18.1425 26.6859C18.2429 27.2123 18.7029 27.5866 19.23 27.5866C19.2603 27.5866 19.2913 27.5851 19.3223 27.5829C19.8871 27.5364 20.3249 27.0713 20.3382 26.5043C20.4341 22.2894 26.4925 20.1299 26.5515 20.1093C27.0514 19.9372 27.3592 19.4352 27.2876 18.9118C27.2145 18.3883 26.7826 17.9882 26.2555 17.9572ZM19.1761 22.9745C18.4939 21.5821 17.4478 20.0598 15.8915 19.0757C17.2618 18.3071 18.6224 17.134 19.4891 15.4455C20.2703 16.8291 21.45 18.3654 23.1392 19.3031C21.7727 20.1152 20.1927 21.3267 19.1761 22.9745Z" fill="#3A312A"/>
<path d="M118.705 81.0839L125.461 62.6195H125.446C125.707 61.7764 125.848 60.8801 125.848 59.9514C125.848 54.9754 121.814 50.9421 116.839 50.9421C111.863 50.9421 107.83 54.9761 107.83 59.9514C107.83 54.9754 103.796 50.9421 98.8204 50.9421C93.8451 50.9421 89.8112 54.9761 89.8112 59.9514C89.8112 54.9754 85.7772 50.9421 80.8019 50.9421C75.8259 50.9421 71.7927 54.9761 71.7927 59.9514C71.7927 60.8801 71.9337 61.7764 72.195 62.6195H72.1803L78.9356 81.0839C63.5542 88.4926 52.9385 104.229 52.9385 122.445C52.9385 147.785 73.4804 150.609 98.8212 150.609C124.161 150.609 144.704 147.785 144.704 122.445C144.702 104.229 134.087 88.4926 118.705 81.0839Z" fill="#87796F"/>
<path d="M120.087 80.5325L126.501 62.9998C126.528 62.9244 126.547 62.8484 126.557 62.7702C126.821 61.8569 126.956 60.9089 126.956 59.9507C126.956 54.3722 122.417 49.834 116.839 49.834C112.916 49.834 109.507 52.0784 107.83 55.3512C106.152 52.0784 102.743 49.834 98.8204 49.834C94.8972 49.834 91.4878 52.0791 89.8104 55.3512C88.1331 52.0791 84.7237 49.834 80.8012 49.834C75.2227 49.834 70.6845 54.3722 70.6845 59.9507C70.6845 60.9067 70.8182 61.851 71.081 62.7613C71.0913 62.8418 71.1105 62.9222 71.1393 62.9998L77.5535 80.5325C61.8938 88.4985 51.8303 104.839 51.8303 122.445C51.8303 149.457 75.0441 151.717 98.8204 151.717C122.597 151.717 145.81 149.456 145.81 122.445C145.81 104.839 135.746 88.4985 120.087 80.5325ZM98.8204 149.502C70.4623 149.502 54.0451 145.074 54.0451 122.445C54.0451 105.349 64.0031 89.5055 79.4154 82.0821C79.9278 81.8348 80.17 81.2383 79.9743 80.7037L73.2818 62.4106C73.2744 62.37 73.2648 62.3309 73.2523 62.2917C73.019 61.538 72.8994 60.7502 72.8994 59.9514C72.8994 55.5948 76.4446 52.0496 80.8012 52.0496C85.1578 52.0496 88.703 55.5948 88.703 59.9514C88.703 60.5627 89.1991 61.0588 89.8104 61.0588C90.4217 61.0588 90.9179 60.5627 90.9179 59.9514C90.9179 55.5948 94.4631 52.0496 98.8204 52.0496C103.177 52.0496 106.722 55.5948 106.722 59.9514C106.722 60.5627 107.218 61.0588 107.83 61.0588C108.441 61.0588 108.937 60.5627 108.937 59.9514C108.937 55.5948 112.482 52.0496 116.839 52.0496C121.196 52.0496 124.741 55.5948 124.741 59.9514C124.741 60.7495 124.623 61.5372 124.389 62.2925C124.377 62.3294 124.368 62.367 124.361 62.4047L117.666 80.7037C117.469 81.239 117.712 81.8348 118.225 82.0821C133.637 89.5055 143.595 105.349 143.595 122.445C143.595 145.074 127.178 149.502 98.8204 149.502Z" fill="#3A312A"/>
<path d="M98.8197 136.463C110.637 136.463 120.217 126.883 120.217 115.066C120.217 103.248 110.637 93.668 98.8197 93.668C87.0021 93.668 77.4221 103.248 77.4221 115.066C77.4221 126.883 87.0021 136.463 98.8197 136.463Z" fill="#D7E057"/>
<path d="M98.8204 92.5605C86.4107 92.5605 76.3154 102.657 76.3154 115.065C76.3154 127.475 86.4114 137.57 98.8204 137.57C111.229 137.57 121.325 127.474 121.325 115.065C121.325 102.657 111.229 92.5605 98.8204 92.5605ZM98.8204 135.356C87.6325 135.356 78.5302 126.253 78.5302 115.066C78.5302 103.878 87.6325 94.7761 98.8204 94.7761C110.008 94.7761 119.11 103.878 119.11 115.066C119.11 126.253 110.008 135.356 98.8204 135.356Z" fill="#3A312A"/>
<path d="M101.364 112.645C98.2475 111.472 96.9636 110.702 96.9636 109.492C96.9636 108.466 97.7337 107.439 100.117 107.439C102.756 107.439 104.443 108.282 105.396 108.685L106.459 104.543C105.249 103.956 103.599 103.442 101.143 103.333V100.106H97.5498V103.589C93.6273 104.359 91.3542 106.888 91.3542 110.115C91.3542 113.672 94.0305 115.506 97.9529 116.825C100.666 117.742 101.839 118.622 101.839 120.014C101.839 121.481 100.409 122.287 98.3199 122.287C95.9367 122.287 93.7735 121.517 92.2335 120.674L91.1334 124.964C92.5266 125.77 94.9097 126.43 97.366 126.54V130.023H100.959V126.283C105.176 125.551 107.486 122.764 107.486 119.5C107.486 116.202 105.726 114.185 101.364 112.645Z" fill="#87796F"/>
<path d="M101.754 111.609C100.039 110.964 98.0718 110.141 98.0718 109.493C98.0718 108.671 99.3527 108.548 100.118 108.548C102.296 108.548 103.735 109.174 104.688 109.587L104.965 109.707C105.263 109.833 105.599 109.822 105.888 109.68C106.177 109.537 106.39 109.274 106.47 108.962L107.532 104.82C107.663 104.309 107.417 103.778 106.942 103.548C105.579 102.886 104.036 102.476 102.251 102.301V100.106C102.251 99.4951 101.755 98.999 101.144 98.999H97.5506C96.9393 98.999 96.4432 99.4951 96.4432 100.106V102.713C92.5975 103.774 90.2475 106.546 90.2475 110.115C90.2475 114.799 94.1774 116.722 97.5993 117.874C100.733 118.933 100.733 119.663 100.733 120.013C100.733 121.124 98.723 121.18 98.3199 121.18C95.8348 121.18 93.7735 120.254 92.7665 119.703C92.4668 119.538 92.1072 119.523 91.7942 119.658C91.4797 119.794 91.2471 120.067 91.1622 120.399L90.0629 124.689C89.9396 125.17 90.1515 125.674 90.5812 125.922C91.9935 126.739 94.0999 127.342 96.2601 127.568V130.023C96.2601 130.634 96.7562 131.13 97.3675 131.13H100.96C101.571 131.13 102.067 130.634 102.067 130.023V127.178C106.063 126.155 108.594 123.221 108.594 119.501C108.594 115.662 106.542 113.299 101.754 111.609ZM100.77 125.193C100.239 125.286 99.8525 125.745 99.8525 126.284V128.916H98.4749V126.541C98.4749 125.948 98.0091 125.461 97.417 125.435C95.6288 125.354 93.7713 124.952 92.4299 124.374L92.971 122.26C94.2955 122.824 96.1685 123.396 98.3199 123.396C101.131 123.396 102.947 122.068 102.947 120.014C102.947 117.666 100.717 116.59 98.3073 115.776C94.156 114.378 92.4623 112.739 92.4623 110.116C92.4623 107.362 94.4446 105.328 97.7639 104.676C98.283 104.575 98.658 104.119 98.658 103.59V101.214H100.036V103.333C100.036 103.926 100.503 104.414 101.095 104.439C102.65 104.509 103.987 104.755 105.151 105.188L104.643 107.17C103.58 106.762 102.095 106.332 100.118 106.332C96.9762 106.332 95.857 107.965 95.857 109.492C95.857 111.59 98.0748 112.591 100.995 113.689C105.463 115.267 106.379 117.153 106.379 119.502C106.379 122.411 104.23 124.592 100.77 125.193Z" fill="#3A312A"/>
<path d="M121.906 74.5916H76.2955C73.9632 74.5916 72.0725 76.4823 72.0725 78.8145C72.0725 81.1468 73.9632 83.0375 76.2955 83.0375H121.906C124.239 83.0375 126.129 81.1468 126.129 78.8145C126.13 76.4823 124.239 74.5916 121.906 74.5916Z" fill="#8AC6DD"/>
<path d="M121.906 73.4841H91.0227C90.4114 73.4841 89.9153 73.9803 89.9153 74.5916C89.9153 75.2028 90.4114 75.699 91.0227 75.699H121.906C123.624 75.699 125.023 77.0965 125.023 78.8145C125.023 80.5325 123.624 81.9308 121.906 81.9308H76.2962C74.5782 81.9308 73.1799 80.5325 73.1799 78.8145C73.1799 77.0965 74.5782 75.699 76.2962 75.699H80.9968C81.6081 75.699 82.1043 75.2028 82.1043 74.5916C82.1043 73.9803 81.6081 73.4841 80.9968 73.4841H76.2962C73.3571 73.4841 70.9651 75.8747 70.9651 78.8145C70.9651 81.7544 73.3564 84.1457 76.2962 84.1457H121.906C124.846 84.1457 127.238 81.7544 127.238 78.8145C127.238 75.8747 124.846 73.4841 121.906 73.4841Z" fill="#3A312A"/>
<path d="M164.595 57.7756C163.01 55.2596 159.683 54.505 157.168 56.0924C154.652 57.6789 153.898 61.0041 155.484 63.5202C162.202 74.1751 165.752 86.4963 165.752 99.1511C165.752 136.058 135.726 166.084 98.8197 166.084C81.4413 166.084 65.5904 159.425 53.6797 148.527L47.0211 141.492C37.5674 129.949 31.8871 115.201 31.8871 99.1511C31.8871 62.2444 61.913 32.2193 98.8197 32.2193C109.314 32.2193 119.429 34.618 128.616 39.2042L125.991 39.8243C123.096 40.5087 121.304 43.4087 121.988 46.3035C122.604 48.9133 125.022 50.6269 127.613 50.4379C127.897 50.4172 128.182 50.3744 128.467 50.3072L143.85 46.6734C145.241 46.3456 146.443 45.4781 147.194 44.2629C147.945 43.0477 148.183 41.5844 147.854 40.1942L144.22 24.8106C143.537 21.9166 140.634 20.127 137.741 20.8077C134.846 21.4913 133.055 24.392 133.738 27.2868L134.39 30.0473C125.032 25.2086 114.818 22.3573 104.19 21.6375L94.187 21.591C53.4907 23.9971 21.1185 57.8627 21.1185 99.1519C21.1185 141.997 55.9765 176.855 98.8219 176.855C141.667 176.855 176.525 141.998 176.525 99.1519C176.523 84.4608 172.398 70.1529 164.595 57.7756Z" fill="#F16C7A"/>
<path d="M165.532 57.1858C164.607 55.7189 163.166 54.6993 161.475 54.3154C159.783 53.9337 158.044 54.2312 156.577 55.1563C153.548 57.0655 152.637 61.0825 154.547 64.1109C161.153 74.5886 164.645 86.7053 164.645 99.152C164.645 135.447 135.116 164.976 98.8204 164.976C82.376 164.976 66.6225 158.855 54.4564 147.737L47.8539 140.76C38.2718 129.046 32.9953 114.27 32.9953 99.152C32.9953 62.8566 62.5243 33.3275 98.8204 33.3275C108.081 33.3275 116.971 35.1888 125.297 38.8676C122.073 39.8702 120.122 43.2235 120.91 46.559C121.647 49.6797 124.504 51.7624 127.692 51.5432C128.031 51.5195 128.376 51.4664 128.722 51.3859L144.105 47.7521C145.768 47.3593 147.238 46.2999 148.137 44.8447C149.049 43.3689 149.331 41.6273 148.932 39.9396L145.298 24.556C144.476 21.075 140.974 18.9111 137.486 19.7291C134.002 20.5531 131.837 24.0569 132.66 27.5409L132.769 28.0016C123.838 23.7203 114.261 21.2087 104.265 20.5317C103.634 20.4711 103.125 20.951 103.085 21.5616C103.043 22.1721 103.504 22.7 104.115 22.7413C114.606 23.453 124.62 26.2415 133.881 31.0307C134.265 31.2301 134.73 31.1865 135.071 30.9207C135.412 30.655 135.567 30.2142 135.467 29.7934L134.815 27.0337C134.273 24.7384 135.699 22.4298 137.994 21.8864C140.293 21.3475 142.601 22.7738 143.142 25.0669L146.776 40.4512C147.039 41.5623 146.853 42.7104 146.252 43.6827C145.66 44.641 144.692 45.3386 143.596 45.5978L128.217 49.2309C127.986 49.284 127.757 49.3195 127.533 49.3357C125.435 49.4929 123.552 48.1079 123.066 46.0518C122.524 43.7565 123.95 41.4472 126.246 40.9045L128.871 40.2844C129.325 40.1766 129.663 39.7971 129.717 39.3342C129.771 38.8713 129.529 38.4246 129.112 38.2157C119.675 33.5033 109.483 31.1142 98.8219 31.1142C61.3047 31.1142 30.7819 61.6369 30.7819 99.1534C30.7819 114.795 36.2452 130.082 46.1669 142.196C46.1832 142.217 46.2009 142.237 46.2186 142.256L52.8772 149.29C52.8956 149.309 52.9148 149.328 52.934 149.345C65.5129 160.855 81.809 167.193 98.8219 167.193C136.338 167.193 166.861 136.67 166.861 99.1534C166.861 86.2881 163.251 73.7632 156.422 62.9311C155.813 61.964 155.616 60.8189 155.869 59.7041C156.122 58.5893 156.793 57.6406 157.76 57.0308C158.728 56.4217 159.871 56.2261 160.987 56.4771C162.101 56.7303 163.05 57.4014 163.66 58.3686C171.351 70.5687 175.417 84.6721 175.417 99.1534C175.417 141.388 141.057 175.749 98.8219 175.749C56.587 175.749 22.2245 141.387 22.2245 99.152C22.2245 58.6676 53.8628 25.0846 94.2519 22.6956C94.8618 22.6594 95.3276 22.1352 95.2914 21.5246C95.2553 20.9141 94.7348 20.4475 94.1205 20.4851C52.5627 22.9421 20.0096 57.4974 20.0096 99.152C20.0096 142.608 55.3645 177.962 98.8204 177.962C142.276 177.962 177.63 142.608 177.63 99.152C177.63 84.2512 173.447 69.7403 165.532 57.1858Z" fill="#3A312A"/>
<path d="M116.84 52.0488C114.286 52.0488 112.012 53.267 110.565 55.157C111.584 56.4859 112.189 58.147 112.189 59.9484C112.189 60.7458 112.071 61.5357 111.835 62.2888C111.827 62.3257 111.82 62.3626 111.813 62.4069L107.76 73.4811H120.31L124.363 62.4069C124.371 62.3626 124.378 62.3257 124.386 62.2888C124.622 61.5357 124.74 60.7458 124.74 59.9484C124.74 55.5926 121.196 52.0488 116.84 52.0488Z" fill="#695B51"/>
<path d="M122.001 84.142H109.45C122.695 92.1892 131.045 106.792 131.045 122.444C131.045 143.345 117.032 148.719 92.5436 149.421C94.5664 149.48 96.6558 149.502 98.819 149.502C127.176 149.502 143.596 145.072 143.596 122.444C143.596 106.792 135.246 92.1892 122.001 84.142Z" fill="#695B51"/>
<path d="M121.905 75.6959H109.354C111.074 75.6959 112.47 77.0987 112.47 78.8115C112.47 80.5317 111.074 81.927 109.354 81.927H121.905C123.625 81.927 125.021 80.5317 125.021 78.8115C125.021 77.0987 123.625 75.6959 121.905 75.6959Z" fill="#6CA8BF"/>
</svg>
