<svg width="189" height="189" viewBox="0 0 189 189" fill="none" xmlns="http://www.w3.org/2000/svg">
<g clip-path="url(#clip0_1509_698)">
<path d="M184.94 43.1807L155.408 72.712V57.9463C128.592 57.9463 91.3941 57.9463 64.5997 57.9463V28.4151H155.408V13.6494L184.94 43.1807Z" fill="#FF523D"/>
<path d="M123.662 178.286V185.669H64.5997V178.286C64.5997 174.207 67.9032 170.904 71.9825 170.904H116.279C120.359 170.904 123.662 174.207 123.662 178.286Z" fill="#854834"/>
<path d="M123.662 87.4777V117.009C101.574 117.009 54.9169 117.009 32.8535 117.009V131.775L3.32227 102.243L32.8535 72.712V87.4777H123.662Z" fill="#6AA89D"/>
<path d="M86.7481 117.009H101.514V170.903H86.7481V117.009Z" fill="#854834"/>
<path d="M86.7481 57.9463H101.514V87.4776H86.7481V57.9463Z" fill="#854834"/>
<path d="M101.514 7.1087V28.4151H86.7481V7.1087C90.8274 3.03229 97.4345 3.03229 101.514 7.1087Z" fill="#854834"/>
<path d="M155.408 39.4894C153.371 39.4894 151.717 41.1433 151.717 43.1808C151.717 45.2183 153.371 46.8722 155.408 46.8722C157.446 46.8722 159.1 45.2183 159.1 43.1808C159.1 41.1433 157.446 39.4894 155.408 39.4894Z" fill="black"/>
<path d="M32.8535 98.5519C30.8161 98.5519 29.1621 100.206 29.1621 102.243C29.1621 104.281 30.8161 105.935 32.8535 105.935C34.891 105.935 36.545 104.281 36.545 102.243C36.545 100.206 34.891 98.5519 32.8535 98.5519Z" fill="black"/>
<path d="M71.9825 98.5519H47.6192C45.5803 98.5519 43.9278 100.204 43.9278 102.243C43.9278 104.282 45.5803 105.935 47.6192 105.935H71.9825C74.0214 105.935 75.6739 104.282 75.6739 102.243C75.6739 100.204 74.0214 98.5519 71.9825 98.5519Z" fill="black"/>
<path d="M158.018 11.0395C156.963 9.98399 155.375 9.66821 153.995 10.2392C152.617 10.8102 151.717 12.157 151.717 13.6494V24.7237H105.205V7.10873C105.205 6.12964 104.816 5.18949 104.122 4.49735C98.614 -1.0066 89.6479 -1.0066 84.1396 4.49735C83.446 5.18949 83.0567 6.12964 83.0567 7.10873V24.7237H64.5997C62.5607 24.7237 60.9083 26.3776 60.9083 28.4151V57.9464C60.9083 59.9853 62.5607 61.6378 64.5997 61.6378H83.0567V83.7862H36.545V72.712C36.545 71.2196 35.6452 69.8728 34.2667 69.3018C32.8867 68.7322 31.2991 69.0466 30.2436 70.1021L0.712327 99.6333C-0.72963 101.075 -0.72963 103.413 0.712327 104.855L30.2436 134.386C31.3006 135.443 32.8896 135.756 34.2667 135.186C35.6452 134.614 36.545 133.268 36.545 131.776V120.702H83.0567V167.214H71.9825C65.8758 167.214 60.9083 172.181 60.9083 178.288V181.979H49.834C47.7951 181.979 46.1426 183.632 46.1426 185.671C46.1426 187.708 47.7951 189.362 49.834 189.362H138.428C140.467 189.362 142.119 187.708 142.119 185.671C142.119 183.632 140.467 181.979 138.428 181.979H127.354V178.288C127.354 172.181 122.386 167.214 116.279 167.214H105.205V120.702H123.662C125.701 120.702 127.354 119.048 127.354 117.01V87.4791C127.354 85.4402 125.701 83.7877 123.662 83.7877H105.205V61.6392H151.717V72.7135C151.717 74.2059 152.617 75.5512 153.995 76.1237C155.378 76.6947 156.964 76.376 158.018 75.3234L187.55 45.7921C188.992 44.3502 188.992 42.0127 187.55 40.5708L158.018 11.0395ZM90.4395 8.84052C92.6731 7.3827 95.5888 7.3827 97.8224 8.84052V24.7237H90.4395V8.84052ZM119.971 178.286V181.978H68.2911V178.286C68.2911 176.25 69.9464 174.595 71.9825 174.595H116.279C118.315 174.595 119.971 176.252 119.971 178.286ZM97.8224 167.212H90.4395V120.7H97.8224V167.212ZM119.971 113.318H32.8535C30.8146 113.318 29.1621 114.97 29.1621 117.009V122.862L8.54215 102.243L29.1621 81.6247V87.4777C29.1621 89.5166 30.8146 91.1691 32.8535 91.1691H119.971V113.318ZM97.8224 83.7862H90.4395V61.6378H97.8224V83.7862ZM159.1 63.8007V57.9464C159.1 55.9089 157.447 54.255 155.408 54.255H68.2911V32.1065H155.408C157.447 32.1065 159.1 30.454 159.1 28.4151V22.5622L179.72 43.1807L159.1 63.8007Z" fill="black"/>
<path d="M140.643 39.4894H116.279C114.24 39.4894 112.588 41.1419 112.588 43.1808C112.588 45.2197 114.24 46.8722 116.279 46.8722H140.643C142.682 46.8722 144.334 45.2197 144.334 43.1808C144.334 41.1419 142.682 39.4894 140.643 39.4894Z" fill="black"/>
</g>
<defs>
<clipPath id="clip0_1509_698">
<rect width="189" height="189" fill="white"/>
</clipPath>
</defs>
</svg>
