<svg width="189" height="189" viewBox="0 0 189 189" fill="none" xmlns="http://www.w3.org/2000/svg">
<g clip-path="url(#clip0_1509_674)">
<path d="M174.609 59.2638C185.886 47.9874 185.886 29.7048 174.609 18.4284C163.333 7.15199 145.05 7.15199 133.774 18.4284C122.498 29.7048 122.498 47.9874 133.774 59.2638C145.05 70.5401 163.333 70.5401 174.609 59.2638Z" fill="#FDCD56"/>
<path d="M171.645 49.5317C177.578 39.934 174.606 27.3445 165.008 21.4122C155.411 15.4799 142.821 18.4513 136.889 28.049C130.957 37.6467 133.928 50.2362 143.526 56.1685C153.123 62.1008 165.713 59.1294 171.645 49.5317Z" fill="#F5B945"/>
<path d="M45.5943 114.121C48.6863 113.813 50.9435 111.057 50.6359 107.965C50.3282 104.873 47.5722 102.616 44.4801 102.923C41.3881 103.231 39.1309 105.987 39.4385 109.079C39.7462 112.171 42.5022 114.428 45.5943 114.121Z" fill="#F76C82"/>
<path d="M110.46 106.803C113.484 106.088 115.356 103.057 114.641 100.034C113.926 97.01 110.895 95.1382 107.872 95.8529C104.848 96.5677 102.976 99.5983 103.691 102.622C104.406 105.646 107.436 107.517 110.46 106.803Z" fill="#C6EA94"/>
<path fill-rule="evenodd" clip-rule="evenodd" d="M77.0806 92.356C80.1795 92.356 82.7074 89.8285 82.7074 86.7292C82.7074 83.6303 80.1799 81.1024 77.0806 81.1024C73.9813 81.1024 71.4538 83.6299 71.4538 86.7292C71.4538 89.8285 73.9813 92.356 77.0806 92.356Z" fill="#FDCD56"/>
<path d="M146.509 82.2577C147.699 79.3863 146.336 76.0937 143.465 74.9035C140.594 73.7132 137.301 75.0761 136.111 77.9476C134.921 80.819 136.284 84.1116 139.155 85.3018C142.026 86.492 145.319 85.1291 146.509 82.2577Z" fill="#66D4F1"/>
<path fill-rule="evenodd" clip-rule="evenodd" d="M37.766 128.84V154.778C42.0669 159.352 46.9203 163.401 52.2197 166.817V128.84C52.2197 126.807 50.5615 125.149 48.5283 125.149H41.4571C39.4242 125.149 37.766 126.807 37.766 128.84Z" fill="#F76C82"/>
<path fill-rule="evenodd" clip-rule="evenodd" d="M69.8536 108.427V175.23C74.4926 176.753 79.3265 177.848 84.3073 178.468V108.427C84.3073 106.394 82.6491 104.735 80.6159 104.735H73.5446C71.5118 104.735 69.8536 106.394 69.8536 108.427Z" fill="#FDCD56"/>
<path fill-rule="evenodd" clip-rule="evenodd" d="M101.941 121.542V178.648C106.915 178.133 111.748 177.145 116.395 175.73V121.542C116.395 119.509 114.737 117.851 112.703 117.851H105.633C103.599 117.851 101.941 119.509 101.941 121.542Z" fill="#C6EA94"/>
<path fill-rule="evenodd" clip-rule="evenodd" d="M134.029 101.226V167.809C139.296 164.592 144.148 160.759 148.482 156.411V101.226C148.482 99.1928 146.824 97.5347 144.791 97.5347H137.72C135.687 97.5347 134.029 99.1928 134.029 101.226Z" fill="#66D4F1"/>
<path fill-rule="evenodd" clip-rule="evenodd" d="M115.282 100.383L112.402 96.0916L135.034 80.9055L137.914 85.1968L115.282 100.383ZM102.979 101.385L81.1286 91.409L83.2737 86.7077L105.124 96.6837L102.979 101.385ZM51.1005 107.521L48.195 103.249L70.9776 87.7501L73.8831 92.0244L51.1005 107.521Z" fill="black"/>
<path fill-rule="evenodd" clip-rule="evenodd" d="M17.0358 110.027C16.381 110.027 15.728 109.781 15.2226 109.288L4.09708 98.3601C3.07752 97.3597 3.06386 95.7237 4.06054 94.7059C5.06091 93.6864 6.69842 93.6727 7.71466 94.6731L14.2776 101.118C14.5035 80.1729 22.7686 60.5165 37.6003 45.6811C52.6424 30.639 72.6424 22.3551 93.916 22.3551C101.837 22.3551 109.667 23.5186 117.187 25.8147C118.552 26.2296 119.323 27.6748 118.908 29.0399C118.489 30.405 117.043 31.1728 115.681 30.7575C108.649 28.6109 101.325 27.5234 93.916 27.5234C53.085 27.5234 19.8228 60.5545 19.446 101.301L26.1185 94.5048C27.1208 93.487 28.7549 93.4712 29.7745 94.4719C30.7922 95.4704 30.8081 97.1083 29.8074 98.126L18.8767 109.255C18.3714 109.769 17.7029 110.027 17.0358 110.027ZM93.9164 181.637C115.19 181.637 135.19 173.355 150.232 158.311C165.276 143.269 173.558 123.268 173.558 101.997C173.558 95.298 172.728 88.6742 171.085 82.243L179.073 86.7602C180.318 87.4634 181.893 87.0241 182.595 85.7823C183.3 84.5405 182.86 82.9636 181.617 82.2618L168.039 74.5856C166.795 73.8838 165.22 74.3216 164.519 75.5634L156.844 89.1411C156.142 90.3848 156.578 91.9599 157.822 92.6631C159.062 93.3648 160.639 92.927 161.344 91.6853L166.038 83.3748C167.601 89.4342 168.39 95.6779 168.39 101.996C168.39 143.06 134.983 176.469 93.9164 176.469C59.3984 176.469 29.6305 153.07 21.5286 119.57C21.1916 118.183 19.797 117.33 18.4094 117.665C17.02 118 16.1672 119.398 16.5043 120.786C20.6309 137.846 30.5058 153.3 44.3113 164.304C58.5335 175.643 75.6875 181.637 93.9164 181.637Z" fill="black"/>
<path fill-rule="evenodd" clip-rule="evenodd" d="M154.216 12.5315C139.716 12.5315 127.918 24.3274 127.918 38.8258C127.918 53.326 139.716 65.1219 154.216 65.1219C168.711 65.1219 180.509 53.326 180.509 38.8258C180.509 24.3274 168.711 12.5315 154.216 12.5315ZM154.216 70.2906C136.866 70.2906 122.75 56.1761 122.75 38.8258C122.75 21.4773 136.866 7.36279 154.216 7.36279C171.561 7.36279 185.677 21.4773 185.677 38.8258C185.677 56.1761 171.561 70.2906 154.216 70.2906Z" fill="black"/>
<path fill-rule="evenodd" clip-rule="evenodd" d="M154.216 20.9896C144.378 20.9896 136.378 28.9908 136.378 38.8261C136.378 48.6611 144.378 56.6623 154.216 56.6623C164.05 56.6623 172.053 48.6611 172.053 38.8261C172.053 28.9908 164.05 20.9896 154.216 20.9896ZM154.216 61.831C141.527 61.831 131.211 51.5113 131.211 38.8261C131.211 26.1425 141.527 15.8213 154.216 15.8213C166.9 15.8213 177.219 26.1428 177.219 38.8261C177.22 51.5113 166.9 61.831 154.216 61.831Z" fill="black"/>
<path fill-rule="evenodd" clip-rule="evenodd" d="M154.282 54.9879C152.883 54.9879 151.735 53.8712 151.702 52.4663L151.679 51.6187C149.897 51.1012 148.664 50.0624 147.545 49.0081C146.507 48.0288 146.46 46.3943 147.438 45.3559C148.417 44.3171 150.052 44.2702 151.088 45.2499C152.417 46.5021 153.004 46.7904 154.216 46.7904C156.017 46.7904 157.481 45.6058 157.481 44.1488C157.481 42.6918 156.017 41.5072 154.216 41.5072C149.56 41.5072 145.777 38.0026 145.777 33.6973C145.777 30.2396 148.217 27.299 151.583 26.2743L151.561 25.3104C151.527 23.883 152.658 22.7002 154.082 22.6655C155.496 22.629 156.693 23.7597 156.729 25.1871L156.755 26.3215C158.578 26.8756 160.567 27.9472 161.564 29.4666C162.347 30.6582 162.019 32.261 160.826 33.0443C159.631 33.8276 158.028 33.4976 157.246 32.3045C156.892 31.8498 155.105 31.0543 154.216 31.0543C152.409 31.0543 150.943 32.2403 150.943 33.6977C150.943 35.1532 152.409 36.3392 154.216 36.3392C158.866 36.3392 162.649 39.8424 162.649 44.1495C162.649 47.6039 160.214 50.5427 156.847 51.5707L156.864 52.3437C156.902 53.7697 155.772 54.9539 154.344 54.9886C154.326 54.9879 154.303 54.9879 154.282 54.9879Z" fill="black"/>
<path fill-rule="evenodd" clip-rule="evenodd" d="M54.8067 166.81H49.638V127.727H40.35V154.771H35.1832V125.142C35.1832 123.714 36.3415 122.558 37.7657 122.558H52.2223C53.6465 122.558 54.8067 123.714 54.8067 125.142V166.81ZM136.615 167.802H131.446V97.528C131.446 96.1005 132.602 94.9436 134.03 94.9436H148.484C149.911 94.9436 151.066 96.1001 151.066 97.528V156.404H145.899V100.112H136.615V167.802ZM86.8913 178.46H81.7229V107.313H72.4398V175.223H67.2715V104.728C67.2715 103.301 68.428 102.144 69.8558 102.144H84.3073C85.7366 102.144 86.8917 103.301 86.8917 104.728V178.46H86.8913ZM104.526 178.641H99.3575V117.843C99.3575 116.417 100.516 115.26 101.942 115.26H116.397C117.825 115.26 118.981 116.417 118.981 117.843V175.723H113.813V120.427H104.526V178.641Z" fill="black"/>
<path fill-rule="evenodd" clip-rule="evenodd" d="M141.258 77.0447C139.579 77.0447 138.214 78.4098 138.214 80.0875C138.214 81.7653 139.579 83.1303 141.258 83.1303C142.934 83.1303 144.301 81.7653 144.301 80.0875C144.301 78.4098 142.934 77.0447 141.258 77.0447ZM141.258 88.2972C136.729 88.2972 133.045 84.6154 133.045 80.0875C133.045 75.56 136.729 71.876 141.258 71.876C145.784 71.876 149.468 75.5596 149.468 80.0875C149.468 84.615 145.784 88.2972 141.258 88.2972ZM77.0839 83.6789C75.4044 83.6789 74.0374 85.044 74.0374 86.7217C74.0374 88.3994 75.4044 89.7645 77.0839 89.7645C78.7598 89.7645 80.1249 88.3994 80.1249 86.7217C80.1249 85.044 78.7598 83.6789 77.0839 83.6789ZM77.0839 94.9332C72.5546 94.9332 68.8709 91.2496 68.8709 86.7217C68.8709 82.1938 72.5546 78.512 77.0839 78.512C81.61 78.512 85.2936 82.1938 85.2936 86.7217C85.2936 91.2496 81.61 94.9332 77.0839 94.9332ZM109.169 98.3304C107.493 98.3304 106.128 99.6955 106.128 101.373C106.128 103.051 107.493 104.416 109.169 104.416C110.848 104.416 112.211 103.051 112.211 101.373C112.211 99.6951 110.848 98.3304 109.169 98.3304ZM109.169 109.584C104.644 109.584 100.959 105.899 100.959 101.373C100.959 96.8454 104.644 93.1617 109.169 93.1617C113.698 93.1617 117.378 96.8454 117.378 101.373C117.378 105.899 113.698 109.584 109.169 109.584ZM44.9938 105.507C43.3179 105.507 41.9528 106.873 41.9528 108.551C41.9528 110.227 43.3179 111.592 44.9938 111.592C46.6734 111.592 48.0348 110.227 48.0348 108.551C48.0352 106.873 46.6734 105.507 44.9938 105.507ZM44.9938 116.761C40.4678 116.761 36.7841 113.077 36.7841 108.551C36.7841 104.023 40.4678 100.339 44.9938 100.339C49.5232 100.339 53.2035 104.023 53.2035 108.551C53.2035 113.077 49.5235 116.761 44.9938 116.761Z" fill="black"/>
</g>
<defs>
<clipPath id="clip0_1509_674">
<rect width="189" height="189" fill="white"/>
</clipPath>
</defs>
</svg>
