<svg width="384" height="86" viewBox="0 0 384 86" fill="none" xmlns="http://www.w3.org/2000/svg">
<g clip-path="url(#clip0_1511_919)">
<path d="M381.845 43.4332C382.306 40.6118 380.737 37.8516 378.076 36.8057C371.403 34.1822 364.509 32.2869 357.434 31.1308C354.612 30.6697 351.852 32.2395 350.806 34.9C348.182 41.5722 346.287 48.4667 345.131 55.5422C344.67 58.3638 346.24 61.1239 348.9 62.17C355.572 64.7934 362.467 66.6888 369.543 67.8449C372.364 68.306 375.124 66.7362 376.17 64.0754C378.794 57.4032 380.689 50.509 381.845 43.4332Z" fill="url(#paint0_radial_1511_919)"/>
<path d="M379.777 44.115C380.186 41.6115 378.794 39.1622 376.433 38.2338C370.512 35.9061 364.394 34.2242 358.115 33.1981C355.611 32.7891 353.162 34.1821 352.234 36.5429C349.906 42.4638 348.224 48.5817 347.198 54.8601C346.789 57.364 348.182 59.8133 350.543 60.7414C356.464 63.0694 362.582 64.7513 368.86 65.7771C371.364 66.1864 373.813 64.7934 374.741 62.4322C377.069 56.5117 378.751 50.3938 379.777 44.115Z" fill="url(#paint1_linear_1511_919)"/>
<path d="M345.245 54.8571C345.206 55.0853 345.168 55.3137 345.131 55.5424C344.67 58.3637 346.239 61.1239 348.9 62.17C355.572 64.7934 362.467 66.6888 369.542 67.8449C372.364 68.3059 375.124 66.7361 376.17 64.0756C376.255 63.86 376.339 63.6441 376.422 63.4281L345.245 54.8571Z" fill="url(#paint2_linear_1511_919)"/>
<path d="M376.17 64.0753C377.58 60.4902 378.779 56.8408 379.766 53.1337L374.439 43.7677C373.81 42.4676 372.649 41.4451 371.089 40.9554C367.882 39.9481 364.631 39.0606 361.36 38.2812C358.644 37.6341 356.265 38.9255 355.051 41.4511C354.837 41.897 354.655 42.3585 354.459 42.8128L352.316 50.606C352.284 50.8687 352.269 51.135 352.216 51.3937C351.879 53.0403 352.163 54.6079 352.97 55.8373L358.39 65.3682C362.052 66.4025 365.771 67.2288 369.542 67.8449C372.364 68.3059 375.124 66.7361 376.17 64.0753Z" fill="url(#paint3_linear_1511_919)"/>
<path d="M376.17 64.0756C375.124 66.7359 372.363 68.306 369.542 67.8449C365.772 67.2287 362.052 66.4025 358.391 65.3682L352.978 55.8515C353.635 56.8469 354.636 57.6182 355.932 58.0273C359.137 59.0394 362.389 59.9299 365.66 60.7036C368.619 61.4031 371.335 59.8176 372.232 56.913C373.185 53.8292 374.042 50.7104 374.8 47.5729C375.13 46.2098 374.982 44.8901 374.443 43.774L379.766 53.1341C378.778 56.8405 377.579 60.4904 376.17 64.0756Z" fill="url(#paint4_linear_1511_919)"/>
<path d="M368.237 47.0501C367.577 45.7667 366.404 44.7525 364.903 44.3399C362.06 43.5583 359.121 45.2296 358.34 48.0725C357.927 49.5734 358.199 51.1005 358.965 52.3234L367.601 67.5082C368.247 67.6265 368.894 67.7388 369.542 67.8448C372.364 68.3059 375.124 66.7361 376.17 64.0754C376.41 63.4639 376.645 62.8502 376.873 62.2349L368.237 47.0501Z" fill="url(#paint5_linear_1511_919)"/>
<path d="M378.544 57.3506L371.593 45.1299C371.45 44.775 371.15 44.4876 370.753 44.3783C370.076 44.1924 369.377 44.5898 369.191 45.2664C369.082 45.6639 369.176 46.0686 369.408 46.3729L377.477 60.561C377.851 59.4963 378.206 58.4259 378.544 57.3506Z" fill="url(#paint6_linear_1511_919)"/>
<path d="M354.459 42.8128C354.655 42.3585 354.837 41.897 355.051 41.4511C356.264 38.9254 358.644 37.6341 361.36 38.2812C364.631 39.0606 367.882 39.9481 371.089 40.9554C373.989 41.866 375.514 44.6177 374.8 47.5726C374.042 50.7103 373.185 53.8288 372.232 56.913C371.335 59.8176 368.619 61.4031 365.66 60.7035C362.389 59.9298 359.138 59.0392 355.932 58.0271C353.033 57.1117 351.605 54.3815 352.216 51.3935C352.269 51.135 352.284 50.8685 352.316 50.6057C353.03 48.008 353.744 45.4103 354.459 42.8128ZM361.254 57.6244C362.736 58.032 364.208 58.4844 365.704 58.8367C368.049 59.3888 369.857 58.396 370.549 56.0917C371.411 53.2204 372.206 50.3267 372.934 47.4182C373.517 45.0847 372.478 43.2741 370.171 42.5869C367.243 41.7149 364.294 40.9048 361.332 40.157C359.016 39.5722 357.202 40.5676 356.509 42.8436C355.625 45.7481 354.82 48.6795 354.094 51.6276C353.527 53.9378 354.586 55.6884 356.865 56.4069C358.312 56.8632 359.79 57.222 361.254 57.6244Z" fill="url(#paint7_linear_1511_919)"/>
<path d="M354.459 42.8128C354.655 42.3585 354.837 41.897 355.051 41.4511C356.264 38.9254 358.644 37.6341 361.36 38.2812C364.631 39.0606 367.882 39.9481 371.089 40.9554C373.989 41.866 375.514 44.6177 374.8 47.5726C374.042 50.7103 373.185 53.8288 372.232 56.913C371.335 59.8176 368.619 61.4031 365.66 60.7035C362.389 59.9298 359.138 59.0392 355.932 58.0271C353.033 57.1117 351.605 54.3815 352.216 51.3935C352.269 51.135 352.284 50.8685 352.316 50.6057C353.03 48.008 353.744 45.4103 354.459 42.8128ZM361.254 57.6244C362.736 58.032 364.208 58.4844 365.704 58.8367C368.049 59.3888 369.857 58.396 370.549 56.0917C371.411 53.2204 372.206 50.3267 372.934 47.4182C373.517 45.0847 372.478 43.2741 370.171 42.5869C367.243 41.7149 364.294 40.9048 361.332 40.157C359.016 39.5722 357.202 40.5676 356.509 42.8436C355.625 45.7481 354.82 48.6795 354.094 51.6276C353.527 53.9378 354.586 55.6884 356.865 56.4069C358.312 56.8632 359.79 57.222 361.254 57.6244Z" fill="white"/>
<path d="M364.903 44.3401C362.06 43.5586 359.121 45.2296 358.34 48.0725C357.558 50.9157 359.23 53.8541 362.072 54.6356C364.916 55.4173 367.854 53.7462 368.636 50.903C369.417 48.0601 367.746 45.1218 364.903 44.3401ZM362.56 52.8633C360.695 52.3507 359.6 50.4241 360.112 48.5598C360.625 46.6955 362.551 45.5997 364.416 46.1122C366.28 46.6248 367.376 48.5514 366.863 50.4157C366.351 52.28 364.424 53.3758 362.56 52.8633Z" fill="white"/>
<path d="M371.641 45.9397C371.455 46.616 370.756 47.0136 370.079 46.8277C369.403 46.6417 369.005 45.9427 369.191 45.2664C369.377 44.5898 370.076 44.1924 370.753 44.3783C371.429 44.5642 371.827 45.2632 371.641 45.9397Z" fill="white"/>
</g>
<path d="M43.2361 16.312C43.2361 19.608 42.3081 21.904 40.4521 23.2C38.7401 24.4 36.3881 25 33.3961 25H26.6041V24.544H28.1881V8.656H26.6041V8.2H34.0201C37.0921 8.2 39.3961 8.832 40.9321 10.096C42.4681 11.344 43.2361 13.416 43.2361 16.312ZM32.8681 24.544H33.7801C35.3961 24.544 36.5481 23.976 37.2361 22.84C37.9401 21.688 38.2921 19.768 38.2921 17.08V15.688C38.2921 12.088 37.6041 9.92 36.2281 9.184C35.5721 8.832 34.6441 8.656 33.4441 8.656H32.8681V24.544ZM46.1613 8.2H58.6413L58.8813 12.952H58.4493C57.7773 11.336 57.0733 10.232 56.3373 9.64C55.6013 9.032 54.5213 8.728 53.0973 8.728H52.2573V16.144H53.0733C53.8253 16.144 54.4573 15.864 54.9693 15.304C55.4813 14.728 55.8413 13.96 56.0493 13H56.4093V20.104H56.0013C55.7133 18.904 55.3213 18.048 54.8253 17.536C54.3453 17.024 53.6813 16.768 52.8333 16.768H52.2573V24.472H53.1693C54.6413 24.472 55.8893 24.032 56.9133 23.152C57.9533 22.272 58.6653 21.144 59.0493 19.768H59.5293L59.3373 25H46.1613V24.472H47.5773V8.728H46.1613V8.2ZM62.6738 8.2H69.9938V8.656H68.6738V24.544H69.9938V25H62.6738V24.544H63.9938V8.656H62.6738V8.2ZM88.8451 25H80.6371V24.544H82.2211L78.6451 18.208L74.8291 24.544H77.3731V25H72.4051V24.544H74.0131L78.2131 17.488L73.1971 8.68H71.9011V8.2H79.9891V8.68H78.3571L81.5971 14.488L85.2211 8.68H82.7251V8.2H87.6451V8.68H86.0611L82.0051 15.16L87.4531 24.544H88.8451V25ZM91.0516 8.2H103.532L103.772 12.952H103.34C102.668 11.336 101.964 10.232 101.228 9.64C100.492 9.032 99.4116 8.728 97.9876 8.728H97.1476V16.144H97.9636C98.7156 16.144 99.3476 15.864 99.8596 15.304C100.372 14.728 100.732 13.96 100.94 13H101.3V20.104H100.892C100.604 18.904 100.212 18.048 99.7156 17.536C99.2356 17.024 98.5716 16.768 97.7236 16.768H97.1476V24.472H98.0596C99.5316 24.472 100.78 24.032 101.804 23.152C102.844 22.272 103.556 21.144 103.94 19.768H104.42L104.228 25H91.0516V24.472H92.4676V8.728H91.0516V8.2ZM129.853 16.312C129.853 19.608 128.925 21.904 127.069 23.2C125.357 24.4 123.005 25 120.013 25H113.221V24.544H114.805V8.656H113.221V8.2H120.637C123.709 8.2 126.013 8.832 127.549 10.096C129.085 11.344 129.853 13.416 129.853 16.312ZM119.485 24.544H120.397C122.013 24.544 123.165 23.976 123.853 22.84C124.557 21.688 124.909 19.768 124.909 17.08V15.688C124.909 12.088 124.221 9.92 122.845 9.184C122.189 8.832 121.261 8.656 120.061 8.656H119.485V24.544ZM132.778 8.2H145.258L145.498 12.952H145.066C144.394 11.336 143.69 10.232 142.954 9.64C142.218 9.032 141.138 8.728 139.714 8.728H138.874V16.144H139.69C140.442 16.144 141.074 15.864 141.586 15.304C142.098 14.728 142.458 13.96 142.666 13H143.026V20.104H142.618C142.33 18.904 141.938 18.048 141.442 17.536C140.962 17.024 140.298 16.768 139.45 16.768H138.874V24.472H139.786C141.258 24.472 142.506 24.032 143.53 23.152C144.57 22.272 145.282 21.144 145.666 19.768H146.146L145.954 25H132.778V24.472H134.194V8.728H132.778V8.2ZM160.635 8.416L161.187 8.392C161.523 8.392 161.835 8.416 162.123 8.464V6.52H162.795V8.56C163.099 8.624 163.507 8.736 164.019 8.896C164.531 9.04 164.899 9.112 165.123 9.112C165.363 9.112 165.555 8.952 165.699 8.632H165.939L166.107 13.36H165.747C164.739 11.424 163.755 10.136 162.795 9.496V14.44C164.107 14.872 165.139 15.472 165.891 16.24C166.659 17.008 167.043 18.136 167.043 19.624C167.043 21.112 166.659 22.352 165.891 23.344C165.139 24.32 164.107 24.92 162.795 25.144V26.704H162.123V25.216C162.027 25.232 161.835 25.24 161.547 25.24C161.275 25.24 160.971 25.216 160.635 25.168V26.704H159.963V25.096L157.107 24.544C156.851 24.544 156.635 24.776 156.459 25.24H156.147L155.931 19.672H156.315C157.307 21.832 158.523 23.328 159.963 24.16V18.76C158.683 18.312 157.699 17.696 157.011 16.912C156.339 16.112 156.003 15.04 156.003 13.696C156.003 12.336 156.347 11.192 157.035 10.264C157.739 9.336 158.715 8.752 159.963 8.512V6.52H160.635V8.416ZM161.931 24.736H162.123V19.48C161.771 19.336 161.283 19.168 160.659 18.976H160.635V24.472C161.067 24.648 161.499 24.736 161.931 24.736ZM160.635 13.792C161.275 14 161.771 14.144 162.123 14.224V9.136C161.723 8.96 161.387 8.872 161.115 8.872C160.843 8.872 160.683 8.88 160.635 8.896V13.792ZM164.763 22.288C164.763 21.216 164.107 20.368 162.795 19.744V24.64C163.371 24.496 163.843 24.224 164.211 23.824C164.579 23.424 164.763 22.912 164.763 22.288ZM158.163 11.248C158.163 12.256 158.763 13.016 159.963 13.528V8.992C159.419 9.152 158.979 9.432 158.643 9.832C158.323 10.232 158.163 10.704 158.163 11.248ZM169.957 8.2H182.437L182.677 12.952H182.245C181.573 11.336 180.869 10.232 180.133 9.64C179.397 9.032 178.317 8.728 176.893 8.728H176.053V16.144H176.869C177.621 16.144 178.253 15.864 178.765 15.304C179.277 14.728 179.637 13.96 179.845 13H180.205V20.104H179.797C179.509 18.904 179.117 18.048 178.621 17.536C178.141 17.024 177.477 16.768 176.629 16.768H176.053V24.472H176.965C178.437 24.472 179.685 24.032 180.709 23.152C181.749 22.272 182.461 21.144 182.845 19.768H183.325L183.133 25H169.957V24.472H171.373V8.728H169.957V8.2ZM193.742 16.504H192.47V24.544H194.03V25H186.23V24.544H187.79V8.656H186.23V8.2H193.478C195.558 8.2 197.03 8.312 197.894 8.536C198.774 8.744 199.39 9 199.742 9.304C200.51 9.928 200.894 10.92 200.894 12.28C200.894 13.64 200.558 14.616 199.886 15.208C199.214 15.784 198.19 16.128 196.814 16.24V16.312C198.11 16.488 199.014 16.872 199.526 17.464C200.038 18.056 200.294 19.048 200.294 20.44V21.712C200.294 22.544 200.334 23.104 200.414 23.392C200.51 23.68 200.702 23.824 200.99 23.824C201.278 23.824 201.502 23.696 201.662 23.44C201.838 23.168 201.998 22.608 202.142 21.76L202.55 21.808C202.374 23.168 202.062 24.08 201.614 24.544C201.182 25.008 200.31 25.24 198.998 25.24C197.686 25.24 196.75 24.936 196.19 24.328C195.646 23.704 195.374 22.544 195.374 20.848V19.096C195.374 18.2 195.254 17.544 195.014 17.128C194.79 16.712 194.366 16.504 193.742 16.504ZM192.47 8.656V16.048H193.238C194.15 16.048 194.822 15.768 195.254 15.208C195.702 14.648 195.926 13.736 195.926 12.472V11.776C195.926 10.512 195.71 9.68 195.278 9.28C194.862 8.864 194.19 8.656 193.262 8.656H192.47ZM211.226 16.864C211.226 14.064 211.93 11.88 213.338 10.312C214.762 8.728 216.77 7.936 219.362 7.936C221.954 7.936 223.906 8.688 225.218 10.192C226.546 11.68 227.21 13.8 227.21 16.552C227.21 21.784 224.938 24.608 220.394 25.024V25.192C221.306 25.288 221.978 25.536 222.41 25.936C222.858 26.336 223.194 26.864 223.418 27.52C223.642 28.192 223.842 28.648 224.018 28.888C224.194 29.128 224.458 29.248 224.81 29.248C225.418 29.248 225.778 28.608 225.89 27.328L226.418 27.376C226.386 28.432 226.058 29.24 225.434 29.8C224.81 30.36 223.938 30.64 222.818 30.64C221.714 30.64 220.858 30.36 220.25 29.8C219.642 29.256 219.178 28.448 218.858 27.376C218.65 26.72 218.474 26.296 218.33 26.104C218.186 25.912 218.002 25.816 217.778 25.816C217.33 25.816 216.738 26.144 216.002 26.8L215.666 26.416C216.306 25.776 217.034 25.384 217.85 25.24V25.096C215.674 24.872 214.026 24.048 212.906 22.624C211.786 21.2 211.226 19.28 211.226 16.864ZM222.266 17.584V15.808C222.266 12.88 222.122 11.032 221.834 10.264C221.514 9.384 221.058 8.84 220.466 8.632C220.13 8.504 219.722 8.44 219.242 8.44C218.762 8.44 218.346 8.504 217.994 8.632C217.658 8.76 217.378 8.984 217.154 9.304C216.93 9.624 216.746 9.96 216.602 10.312C216.474 10.664 216.37 11.16 216.29 11.8C216.194 12.728 216.146 14.096 216.146 15.904V17.632C216.146 19.584 216.218 20.976 216.362 21.808C216.522 22.624 216.714 23.208 216.938 23.56C217.434 24.344 218.202 24.736 219.242 24.736C220.506 24.736 221.322 24.208 221.69 23.152C222.074 22.08 222.266 20.224 222.266 17.584ZM235.905 19.888C235.905 21.36 236.153 22.488 236.649 23.272C237.161 24.056 238.073 24.448 239.385 24.448C240.697 24.448 241.705 24.04 242.409 23.224C243.113 22.408 243.465 21.168 243.465 19.504V8.656H241.905V8.2H245.409V8.656H244.089V19.336C244.089 21.32 243.649 22.8 242.769 23.776C241.889 24.752 240.329 25.24 238.089 25.24C235.865 25.24 234.161 24.776 232.977 23.848C231.809 22.92 231.225 21.328 231.225 19.072V8.656H229.905V8.2H237.465V8.656H235.905V19.888ZM247.728 8.2H260.208L260.448 12.952H260.016C259.344 11.336 258.64 10.232 257.904 9.64C257.168 9.032 256.088 8.728 254.664 8.728H253.824V16.144H254.64C255.392 16.144 256.024 15.864 256.536 15.304C257.048 14.728 257.408 13.96 257.616 13H257.976V20.104H257.568C257.28 18.904 256.888 18.048 256.392 17.536C255.912 17.024 255.248 16.768 254.4 16.768H253.824V24.472H254.736C256.208 24.472 257.456 24.032 258.48 23.152C259.52 22.272 260.232 21.144 260.616 19.768H261.096L260.904 25H247.728V24.472H249.144V8.728H247.728V8.2ZM264.144 8.2H271.32C273.544 8.2 275.208 8.504 276.312 9.112C277.432 9.704 277.992 10.712 277.992 12.136C277.992 14.328 276.672 15.64 274.032 16.072V16.12C277.232 16.52 278.832 17.912 278.832 20.296C278.832 22.04 278.176 23.264 276.864 23.968C275.552 24.656 273.664 25 271.2 25H264.144V24.544H265.704V8.656H264.144V8.2ZM270.384 16.504V24.544H271.512C272.392 24.544 273.008 24.24 273.36 23.632C273.712 23.024 273.888 22.128 273.888 20.944V19.672C273.888 18.616 273.672 17.824 273.24 17.296C272.808 16.768 272.04 16.504 270.936 16.504H270.384ZM270.384 8.656V16.048H271.008C271.84 16.048 272.416 15.8 272.736 15.304C273.072 14.792 273.24 14.016 273.24 12.976V11.848C273.24 10.664 273.096 9.84 272.808 9.376C272.52 8.896 271.968 8.656 271.152 8.656H270.384ZM288.772 16.504H287.5V24.544H289.06V25H281.26V24.544H282.82V8.656H281.26V8.2H288.508C290.588 8.2 292.06 8.312 292.924 8.536C293.804 8.744 294.42 9 294.772 9.304C295.54 9.928 295.924 10.92 295.924 12.28C295.924 13.64 295.588 14.616 294.916 15.208C294.244 15.784 293.22 16.128 291.844 16.24V16.312C293.14 16.488 294.044 16.872 294.556 17.464C295.068 18.056 295.324 19.048 295.324 20.44V21.712C295.324 22.544 295.364 23.104 295.444 23.392C295.54 23.68 295.732 23.824 296.02 23.824C296.308 23.824 296.532 23.696 296.692 23.44C296.868 23.168 297.028 22.608 297.172 21.76L297.58 21.808C297.404 23.168 297.092 24.08 296.644 24.544C296.212 25.008 295.34 25.24 294.028 25.24C292.716 25.24 291.78 24.936 291.22 24.328C290.676 23.704 290.404 22.544 290.404 20.848V19.096C290.404 18.2 290.284 17.544 290.044 17.128C289.82 16.712 289.396 16.504 288.772 16.504ZM287.5 8.656V16.048H288.268C289.18 16.048 289.852 15.768 290.284 15.208C290.732 14.648 290.956 13.736 290.956 12.472V11.776C290.956 10.512 290.74 9.68 290.308 9.28C289.892 8.864 289.22 8.656 288.292 8.656H287.5ZM309.654 24.544L307.902 19.36H303.15L301.302 24.544H303.102V25H299.43V24.544H300.558L306.678 8.056H308.646L314.694 24.544H315.798V25H307.95V24.544H309.654ZM305.622 12.544L303.366 18.832H307.71L305.622 12.544ZM334.526 16.312C334.526 19.608 333.598 21.904 331.742 23.2C330.03 24.4 327.678 25 324.686 25H317.894V24.544H319.478V8.656H317.894V8.2H325.31C328.382 8.2 330.686 8.832 332.222 10.096C333.758 11.344 334.526 13.416 334.526 16.312ZM324.158 24.544H325.07C326.686 24.544 327.838 23.976 328.526 22.84C329.23 21.688 329.582 19.768 329.582 17.08V15.688C329.582 12.088 328.894 9.92 327.518 9.184C326.862 8.832 325.934 8.656 324.734 8.656H324.158V24.544ZM348.971 17.584V15.808C348.971 12.88 348.827 11.032 348.539 10.264C348.219 9.384 347.763 8.84 347.171 8.632C346.835 8.504 346.427 8.44 345.947 8.44C345.467 8.44 345.051 8.504 344.699 8.632C344.363 8.76 344.083 8.984 343.859 9.304C343.635 9.624 343.451 9.96 343.307 10.312C343.179 10.664 343.075 11.16 342.995 11.8C342.899 12.728 342.851 14.096 342.851 15.904V17.632C342.851 19.584 342.923 20.976 343.067 21.808C343.227 22.624 343.419 23.208 343.643 23.56C344.139 24.344 344.907 24.736 345.947 24.736C347.211 24.736 348.027 24.208 348.395 23.152C348.779 22.08 348.971 20.224 348.971 17.584ZM345.899 25.24C343.227 25.24 341.227 24.52 339.899 23.08C338.587 21.624 337.931 19.528 337.931 16.792C337.931 14.04 338.635 11.88 340.043 10.312C341.467 8.728 343.475 7.936 346.067 7.936C348.659 7.936 350.611 8.688 351.923 10.192C353.251 11.68 353.915 13.8 353.915 16.552C353.915 19.304 353.243 21.44 351.899 22.96C350.571 24.48 348.571 25.24 345.899 25.24Z" fill="#181818"/>
<path d="M59.7023 58V46.084H61.4663V58H59.7023ZM55.7063 46.444V44.86H65.4623V46.444H55.7063ZM67.0369 58V48.388H68.4049V52.348H68.3329C68.3329 50.944 68.6389 49.918 69.2509 49.27C69.8749 48.61 70.8049 48.28 72.0409 48.28H72.3649V49.828H71.7529C70.7929 49.828 70.0549 50.086 69.5389 50.602C69.0229 51.106 68.7649 51.838 68.7649 52.798V58H67.0369ZM80.1985 58V55.12H79.9105V51.79C79.9105 51.13 79.7365 50.632 79.3885 50.296C79.0525 49.96 78.5545 49.792 77.8945 49.792C77.5225 49.792 77.1385 49.798 76.7425 49.81C76.3465 49.822 75.9685 49.834 75.6085 49.846C75.2485 49.858 74.9365 49.876 74.6725 49.9V48.388C74.9365 48.364 75.2125 48.346 75.5005 48.334C75.8005 48.31 76.1065 48.298 76.4185 48.298C76.7305 48.286 77.0305 48.28 77.3185 48.28C78.3025 48.28 79.1065 48.4 79.7305 48.64C80.3545 48.868 80.8165 49.246 81.1165 49.774C81.4165 50.302 81.5665 51.016 81.5665 51.916V58H80.1985ZM77.0485 58.252C76.3285 58.252 75.7045 58.132 75.1765 57.892C74.6605 57.64 74.2585 57.28 73.9705 56.812C73.6945 56.344 73.5565 55.78 73.5565 55.12C73.5565 54.436 73.7065 53.866 74.0065 53.41C74.3185 52.954 74.7685 52.612 75.3565 52.384C75.9445 52.144 76.6525 52.024 77.4805 52.024H80.0905V53.32H77.4085C76.7125 53.32 76.1785 53.488 75.8065 53.824C75.4345 54.16 75.2485 54.592 75.2485 55.12C75.2485 55.648 75.4345 56.074 75.8065 56.398C76.1785 56.722 76.7125 56.884 77.4085 56.884C77.8165 56.884 78.2065 56.812 78.5785 56.668C78.9505 56.512 79.2565 56.26 79.4965 55.912C79.7485 55.552 79.8865 55.06 79.9105 54.436L80.3785 55.12C80.3185 55.804 80.1505 56.38 79.8745 56.848C79.6105 57.304 79.2385 57.652 78.7585 57.892C78.2905 58.132 77.7205 58.252 77.0485 58.252ZM84.738 58V48.388H86.106V52.51H85.89C85.89 51.562 86.016 50.764 86.268 50.116C86.532 49.456 86.928 48.958 87.456 48.622C87.984 48.274 88.65 48.1 89.454 48.1H89.526C90.738 48.1 91.632 48.478 92.208 49.234C92.796 49.99 93.09 51.082 93.09 52.51V58H91.362V52.15C91.362 51.406 91.152 50.812 90.732 50.368C90.312 49.912 89.736 49.684 89.004 49.684C88.248 49.684 87.636 49.918 87.168 50.386C86.7 50.854 86.466 51.478 86.466 52.258V58H84.738ZM99.4017 58.288C98.1417 58.288 97.1637 58.018 96.4677 57.478C95.7837 56.938 95.4297 56.2 95.4057 55.264H97.0257C97.0497 55.636 97.2357 55.99 97.5837 56.326C97.9437 56.65 98.5497 56.812 99.4017 56.812C100.17 56.812 100.758 56.662 101.166 56.362C101.574 56.05 101.778 55.672 101.778 55.228C101.778 54.832 101.628 54.526 101.328 54.31C101.028 54.082 100.542 53.932 99.8697 53.86L98.8257 53.752C97.9137 53.656 97.1697 53.386 96.5937 52.942C96.0177 52.486 95.7297 51.85 95.7297 51.034C95.7297 50.422 95.8857 49.9 96.1977 49.468C96.5097 49.024 96.9417 48.688 97.4937 48.46C98.0457 48.22 98.6817 48.1 99.4017 48.1C100.482 48.1 101.358 48.34 102.03 48.82C102.702 49.3 103.05 50.014 103.074 50.962H101.454C101.442 50.578 101.262 50.254 100.914 49.99C100.578 49.714 100.074 49.576 99.4017 49.576C98.7297 49.576 98.2197 49.714 97.8717 49.99C97.5237 50.266 97.3497 50.614 97.3497 51.034C97.3497 51.394 97.4697 51.682 97.7097 51.898C97.9617 52.114 98.3697 52.252 98.9337 52.312L99.9777 52.42C101.01 52.528 101.838 52.816 102.462 53.284C103.086 53.74 103.398 54.388 103.398 55.228C103.398 55.828 103.224 56.362 102.876 56.83C102.54 57.286 102.072 57.646 101.472 57.91C100.872 58.162 100.182 58.288 99.4017 58.288ZM106.154 58V47.902C106.154 46.834 106.436 46.048 107 45.544C107.564 45.04 108.392 44.788 109.484 44.788H110.672V46.228H109.196C108.752 46.228 108.41 46.354 108.17 46.606C107.93 46.846 107.81 47.182 107.81 47.614V58H106.154ZM104.822 49.792V48.496H110.852V49.792H104.822ZM117.08 58.324C116.24 58.324 115.502 58.18 114.866 57.892C114.23 57.604 113.69 57.226 113.246 56.758C112.814 56.278 112.484 55.744 112.256 55.156C112.04 54.568 111.932 53.968 111.932 53.356V53.032C111.932 52.42 112.046 51.82 112.274 51.232C112.502 50.632 112.838 50.098 113.282 49.63C113.726 49.15 114.266 48.772 114.902 48.496C115.538 48.208 116.264 48.064 117.08 48.064C117.896 48.064 118.622 48.208 119.258 48.496C119.894 48.772 120.434 49.15 120.878 49.63C121.322 50.098 121.658 50.632 121.886 51.232C122.114 51.82 122.228 52.42 122.228 53.032V53.356C122.228 53.968 122.114 54.568 121.886 55.156C121.67 55.744 121.34 56.278 120.896 56.758C120.464 57.226 119.93 57.604 119.294 57.892C118.658 58.18 117.92 58.324 117.08 58.324ZM117.08 56.776C117.8 56.776 118.412 56.62 118.916 56.308C119.432 55.984 119.822 55.552 120.086 55.012C120.362 54.472 120.5 53.866 120.5 53.194C120.5 52.51 120.362 51.898 120.086 51.358C119.81 50.818 119.414 50.392 118.898 50.08C118.394 49.768 117.788 49.612 117.08 49.612C116.384 49.612 115.778 49.768 115.262 50.08C114.746 50.392 114.35 50.818 114.074 51.358C113.798 51.898 113.66 52.51 113.66 53.194C113.66 53.866 113.792 54.472 114.056 55.012C114.332 55.552 114.722 55.984 115.226 56.308C115.742 56.62 116.36 56.776 117.08 56.776ZM124.816 58V48.388H126.184V52.348H126.112C126.112 50.944 126.418 49.918 127.03 49.27C127.654 48.61 128.584 48.28 129.82 48.28H130.144V49.828H129.532C128.572 49.828 127.834 50.086 127.318 50.602C126.802 51.106 126.544 51.838 126.544 52.798V58H124.816ZM132.199 58V48.388H133.567V52.51H133.351C133.351 51.574 133.471 50.782 133.711 50.134C133.963 49.474 134.335 48.97 134.827 48.622C135.319 48.274 135.943 48.1 136.699 48.1H136.771C137.527 48.1 138.151 48.274 138.643 48.622C139.147 48.97 139.519 49.474 139.759 50.134C139.999 50.782 140.119 51.574 140.119 52.51H139.615C139.615 51.574 139.741 50.782 139.993 50.134C140.245 49.474 140.617 48.97 141.109 48.622C141.613 48.274 142.243 48.1 142.999 48.1H143.071C143.827 48.1 144.457 48.274 144.961 48.622C145.465 48.97 145.837 49.474 146.077 50.134C146.329 50.782 146.455 51.574 146.455 52.51V58H144.727V52.132C144.727 51.352 144.535 50.752 144.151 50.332C143.767 49.9 143.233 49.684 142.549 49.684C141.841 49.684 141.271 49.912 140.839 50.368C140.407 50.812 140.191 51.436 140.191 52.24V58H138.463V52.132C138.463 51.352 138.271 50.752 137.887 50.332C137.503 49.9 136.969 49.684 136.285 49.684C135.577 49.684 135.007 49.912 134.575 50.368C134.143 50.812 133.927 51.436 133.927 52.24V58H132.199ZM153.705 58.324C152.865 58.324 152.139 58.18 151.527 57.892C150.915 57.604 150.417 57.226 150.033 56.758C149.649 56.278 149.361 55.744 149.169 55.156C148.989 54.568 148.899 53.968 148.899 53.356V53.032C148.899 52.408 148.989 51.802 149.169 51.214C149.361 50.626 149.649 50.098 150.033 49.63C150.417 49.15 150.903 48.772 151.491 48.496C152.091 48.208 152.793 48.064 153.597 48.064C154.641 48.064 155.499 48.292 156.171 48.748C156.855 49.192 157.359 49.768 157.683 50.476C158.019 51.184 158.187 51.94 158.187 52.744V53.518H149.655V52.222H156.927L156.531 52.924C156.531 52.24 156.423 51.652 156.207 51.16C155.991 50.656 155.667 50.266 155.235 49.99C154.803 49.714 154.257 49.576 153.597 49.576C152.913 49.576 152.343 49.732 151.887 50.044C151.443 50.356 151.107 50.782 150.879 51.322C150.663 51.862 150.555 52.486 150.555 53.194C150.555 53.878 150.663 54.496 150.879 55.048C151.107 55.588 151.455 56.02 151.923 56.344C152.391 56.656 152.985 56.812 153.705 56.812C154.461 56.812 155.073 56.644 155.541 56.308C156.021 55.972 156.309 55.582 156.405 55.138H158.025C157.893 55.798 157.629 56.368 157.233 56.848C156.837 57.328 156.339 57.694 155.739 57.946C155.139 58.198 154.461 58.324 153.705 58.324ZM167.886 58.288C166.626 58.288 165.648 58.018 164.952 57.478C164.268 56.938 163.914 56.2 163.89 55.264H165.51C165.534 55.636 165.72 55.99 166.068 56.326C166.428 56.65 167.034 56.812 167.886 56.812C168.654 56.812 169.242 56.662 169.65 56.362C170.058 56.05 170.262 55.672 170.262 55.228C170.262 54.832 170.112 54.526 169.812 54.31C169.512 54.082 169.026 53.932 168.354 53.86L167.31 53.752C166.398 53.656 165.654 53.386 165.078 52.942C164.502 52.486 164.214 51.85 164.214 51.034C164.214 50.422 164.37 49.9 164.682 49.468C164.994 49.024 165.426 48.688 165.978 48.46C166.53 48.22 167.166 48.1 167.886 48.1C168.966 48.1 169.842 48.34 170.514 48.82C171.186 49.3 171.534 50.014 171.558 50.962H169.938C169.926 50.578 169.746 50.254 169.398 49.99C169.062 49.714 168.558 49.576 167.886 49.576C167.214 49.576 166.704 49.714 166.356 49.99C166.008 50.266 165.834 50.614 165.834 51.034C165.834 51.394 165.954 51.682 166.194 51.898C166.446 52.114 166.854 52.252 167.418 52.312L168.462 52.42C169.494 52.528 170.322 52.816 170.946 53.284C171.57 53.74 171.882 54.388 171.882 55.228C171.882 55.828 171.708 56.362 171.36 56.83C171.024 57.286 170.556 57.646 169.956 57.91C169.356 58.162 168.666 58.288 167.886 58.288ZM178.472 58.324C177.632 58.324 176.906 58.18 176.294 57.892C175.682 57.604 175.184 57.226 174.8 56.758C174.416 56.278 174.128 55.744 173.936 55.156C173.756 54.568 173.666 53.968 173.666 53.356V53.032C173.666 52.408 173.756 51.802 173.936 51.214C174.128 50.626 174.416 50.098 174.8 49.63C175.184 49.15 175.67 48.772 176.258 48.496C176.858 48.208 177.56 48.064 178.364 48.064C179.408 48.064 180.266 48.292 180.938 48.748C181.622 49.192 182.126 49.768 182.45 50.476C182.786 51.184 182.954 51.94 182.954 52.744V53.518H174.422V52.222H181.694L181.298 52.924C181.298 52.24 181.19 51.652 180.974 51.16C180.758 50.656 180.434 50.266 180.002 49.99C179.57 49.714 179.024 49.576 178.364 49.576C177.68 49.576 177.11 49.732 176.654 50.044C176.21 50.356 175.874 50.782 175.646 51.322C175.43 51.862 175.322 52.486 175.322 53.194C175.322 53.878 175.43 54.496 175.646 55.048C175.874 55.588 176.222 56.02 176.69 56.344C177.158 56.656 177.752 56.812 178.472 56.812C179.228 56.812 179.84 56.644 180.308 56.308C180.788 55.972 181.076 55.582 181.172 55.138H182.792C182.66 55.798 182.396 56.368 182 56.848C181.604 57.328 181.106 57.694 180.506 57.946C179.906 58.198 179.228 58.324 178.472 58.324ZM188.738 58.288C187.598 58.288 186.722 57.916 186.11 57.172C185.498 56.428 185.192 55.354 185.192 53.95V48.37H186.92V54.292C186.92 55.048 187.124 55.642 187.532 56.074C187.94 56.494 188.492 56.704 189.188 56.704C189.908 56.704 190.496 56.476 190.952 56.02C191.408 55.552 191.636 54.916 191.636 54.112V48.37H193.364V58H191.996V53.878H192.212C192.212 54.826 192.086 55.63 191.834 56.29C191.582 56.938 191.204 57.436 190.7 57.784C190.208 58.12 189.578 58.288 188.81 58.288H188.738ZM201.094 58V44.86H202.858V58H201.094ZM206.467 58V48.388H207.835V52.51H207.619C207.619 51.562 207.745 50.764 207.997 50.116C208.261 49.456 208.657 48.958 209.185 48.622C209.713 48.274 210.379 48.1 211.183 48.1H211.255C212.467 48.1 213.361 48.478 213.937 49.234C214.525 49.99 214.819 51.082 214.819 52.51V58H213.091V52.15C213.091 51.406 212.881 50.812 212.461 50.368C212.041 49.912 211.465 49.684 210.733 49.684C209.977 49.684 209.365 49.918 208.897 50.386C208.429 50.854 208.195 51.478 208.195 52.258V58H206.467ZM221.13 58.288C219.87 58.288 218.892 58.018 218.196 57.478C217.512 56.938 217.158 56.2 217.134 55.264H218.754C218.778 55.636 218.964 55.99 219.312 56.326C219.672 56.65 220.278 56.812 221.13 56.812C221.898 56.812 222.486 56.662 222.894 56.362C223.302 56.05 223.506 55.672 223.506 55.228C223.506 54.832 223.356 54.526 223.056 54.31C222.756 54.082 222.27 53.932 221.598 53.86L220.554 53.752C219.642 53.656 218.898 53.386 218.322 52.942C217.746 52.486 217.458 51.85 217.458 51.034C217.458 50.422 217.614 49.9 217.926 49.468C218.238 49.024 218.67 48.688 219.222 48.46C219.774 48.22 220.41 48.1 221.13 48.1C222.21 48.1 223.086 48.34 223.758 48.82C224.43 49.3 224.778 50.014 224.802 50.962H223.182C223.17 50.578 222.99 50.254 222.642 49.99C222.306 49.714 221.802 49.576 221.13 49.576C220.458 49.576 219.948 49.714 219.6 49.99C219.252 50.266 219.078 50.614 219.078 51.034C219.078 51.394 219.198 51.682 219.438 51.898C219.69 52.114 220.098 52.252 220.662 52.312L221.706 52.42C222.738 52.528 223.566 52.816 224.19 53.284C224.814 53.74 225.126 54.388 225.126 55.228C225.126 55.828 224.952 56.362 224.604 56.83C224.268 57.286 223.8 57.646 223.2 57.91C222.6 58.162 221.91 58.288 221.13 58.288ZM231.375 58.108C230.655 58.108 230.031 58.006 229.503 57.802C228.987 57.598 228.585 57.25 228.297 56.758C228.021 56.254 227.883 55.576 227.883 54.724V45.472H229.539V54.94C229.539 55.456 229.677 55.858 229.953 56.146C230.241 56.422 230.643 56.56 231.159 56.56H232.851V58.108H231.375ZM226.227 49.684V48.388H232.851V49.684H226.227ZM241.074 58V55.12H240.786V51.79C240.786 51.13 240.612 50.632 240.264 50.296C239.928 49.96 239.43 49.792 238.77 49.792C238.398 49.792 238.014 49.798 237.618 49.81C237.222 49.822 236.844 49.834 236.484 49.846C236.124 49.858 235.812 49.876 235.548 49.9V48.388C235.812 48.364 236.088 48.346 236.376 48.334C236.676 48.31 236.982 48.298 237.294 48.298C237.606 48.286 237.906 48.28 238.194 48.28C239.178 48.28 239.982 48.4 240.606 48.64C241.23 48.868 241.692 49.246 241.992 49.774C242.292 50.302 242.442 51.016 242.442 51.916V58H241.074ZM237.924 58.252C237.204 58.252 236.58 58.132 236.052 57.892C235.536 57.64 235.134 57.28 234.846 56.812C234.57 56.344 234.432 55.78 234.432 55.12C234.432 54.436 234.582 53.866 234.882 53.41C235.194 52.954 235.644 52.612 236.232 52.384C236.82 52.144 237.528 52.024 238.356 52.024H240.966V53.32H238.284C237.588 53.32 237.054 53.488 236.682 53.824C236.31 54.16 236.124 54.592 236.124 55.12C236.124 55.648 236.31 56.074 236.682 56.398C237.054 56.722 237.588 56.884 238.284 56.884C238.692 56.884 239.082 56.812 239.454 56.668C239.826 56.512 240.132 56.26 240.372 55.912C240.624 55.552 240.762 55.06 240.786 54.436L241.254 55.12C241.194 55.804 241.026 56.38 240.75 56.848C240.486 57.304 240.114 57.652 239.634 57.892C239.166 58.132 238.596 58.252 237.924 58.252ZM249.249 61.744C248.805 61.744 248.355 61.726 247.899 61.69C247.455 61.654 247.029 61.606 246.621 61.546V60.088C247.053 60.148 247.503 60.196 247.971 60.232C248.451 60.28 248.901 60.304 249.321 60.304C250.197 60.304 250.893 60.184 251.409 59.944C251.937 59.716 252.315 59.35 252.543 58.846C252.783 58.354 252.903 57.718 252.903 56.938V55.102L253.479 53.734C253.443 54.706 253.239 55.516 252.867 56.164C252.495 56.8 252.009 57.28 251.409 57.604C250.821 57.916 250.167 58.072 249.447 58.072C248.775 58.072 248.157 57.946 247.593 57.694C247.041 57.43 246.561 57.07 246.153 56.614C245.757 56.158 245.445 55.636 245.217 55.048C245.001 54.448 244.893 53.818 244.893 53.158V52.834C244.893 52.162 245.007 51.538 245.235 50.962C245.463 50.374 245.781 49.864 246.189 49.432C246.597 49 247.083 48.664 247.647 48.424C248.223 48.184 248.853 48.064 249.537 48.064C250.341 48.064 251.049 48.238 251.661 48.586C252.273 48.922 252.753 49.42 253.101 50.08C253.461 50.728 253.659 51.526 253.695 52.474L253.191 52.492V48.388H254.559V56.866C254.559 58.018 254.379 58.948 254.019 59.656C253.671 60.376 253.107 60.904 252.327 61.24C251.559 61.576 250.533 61.744 249.249 61.744ZM249.771 56.488C250.347 56.488 250.869 56.362 251.337 56.11C251.817 55.858 252.195 55.498 252.471 55.03C252.759 54.55 252.903 53.98 252.903 53.32V52.492C252.903 51.844 252.753 51.298 252.453 50.854C252.165 50.41 251.787 50.074 251.319 49.846C250.851 49.618 250.341 49.504 249.789 49.504C249.165 49.504 248.613 49.648 248.133 49.936C247.653 50.224 247.281 50.632 247.017 51.16C246.753 51.676 246.621 52.288 246.621 52.996C246.621 53.704 246.753 54.322 247.017 54.85C247.293 55.378 247.665 55.786 248.133 56.074C248.613 56.35 249.159 56.488 249.771 56.488ZM257.76 58V48.388H259.128V52.348H259.056C259.056 50.944 259.362 49.918 259.974 49.27C260.598 48.61 261.528 48.28 262.764 48.28H263.088V49.828H262.476C261.516 49.828 260.778 50.086 260.262 50.602C259.746 51.106 259.488 51.838 259.488 52.798V58H257.76ZM270.921 58V55.12H270.633V51.79C270.633 51.13 270.459 50.632 270.111 50.296C269.775 49.96 269.277 49.792 268.617 49.792C268.245 49.792 267.861 49.798 267.465 49.81C267.069 49.822 266.691 49.834 266.331 49.846C265.971 49.858 265.659 49.876 265.395 49.9V48.388C265.659 48.364 265.935 48.346 266.223 48.334C266.523 48.31 266.829 48.298 267.141 48.298C267.453 48.286 267.753 48.28 268.041 48.28C269.025 48.28 269.829 48.4 270.453 48.64C271.077 48.868 271.539 49.246 271.839 49.774C272.139 50.302 272.289 51.016 272.289 51.916V58H270.921ZM267.771 58.252C267.051 58.252 266.427 58.132 265.899 57.892C265.383 57.64 264.981 57.28 264.693 56.812C264.417 56.344 264.279 55.78 264.279 55.12C264.279 54.436 264.429 53.866 264.729 53.41C265.041 52.954 265.491 52.612 266.079 52.384C266.667 52.144 267.375 52.024 268.203 52.024H270.813V53.32H268.131C267.435 53.32 266.901 53.488 266.529 53.824C266.157 54.16 265.971 54.592 265.971 55.12C265.971 55.648 266.157 56.074 266.529 56.398C266.901 56.722 267.435 56.884 268.131 56.884C268.539 56.884 268.929 56.812 269.301 56.668C269.673 56.512 269.979 56.26 270.219 55.912C270.471 55.552 270.609 55.06 270.633 54.436L271.101 55.12C271.041 55.804 270.873 56.38 270.597 56.848C270.333 57.304 269.961 57.652 269.481 57.892C269.013 58.132 268.443 58.252 267.771 58.252ZM275.461 58V48.388H276.829V52.51H276.613C276.613 51.574 276.733 50.782 276.973 50.134C277.225 49.474 277.597 48.97 278.089 48.622C278.581 48.274 279.205 48.1 279.961 48.1H280.033C280.789 48.1 281.413 48.274 281.905 48.622C282.409 48.97 282.781 49.474 283.021 50.134C283.261 50.782 283.381 51.574 283.381 52.51H282.877C282.877 51.574 283.003 50.782 283.255 50.134C283.507 49.474 283.879 48.97 284.371 48.622C284.875 48.274 285.505 48.1 286.261 48.1H286.333C287.089 48.1 287.719 48.274 288.223 48.622C288.727 48.97 289.099 49.474 289.339 50.134C289.591 50.782 289.717 51.574 289.717 52.51V58H287.989V52.132C287.989 51.352 287.797 50.752 287.413 50.332C287.029 49.9 286.495 49.684 285.811 49.684C285.103 49.684 284.533 49.912 284.101 50.368C283.669 50.812 283.453 51.436 283.453 52.24V58H281.725V52.132C281.725 51.352 281.533 50.752 281.149 50.332C280.765 49.9 280.231 49.684 279.547 49.684C278.839 49.684 278.269 49.912 277.837 50.368C277.405 50.812 277.189 51.436 277.189 52.24V58H275.461ZM301.062 58.324C300.222 58.324 299.496 58.18 298.884 57.892C298.272 57.604 297.774 57.226 297.39 56.758C297.006 56.278 296.718 55.744 296.526 55.156C296.346 54.568 296.256 53.968 296.256 53.356V53.032C296.256 52.408 296.346 51.802 296.526 51.214C296.718 50.626 297.006 50.098 297.39 49.63C297.774 49.15 298.26 48.772 298.848 48.496C299.448 48.208 300.15 48.064 300.954 48.064C301.998 48.064 302.856 48.292 303.528 48.748C304.212 49.192 304.716 49.768 305.04 50.476C305.376 51.184 305.544 51.94 305.544 52.744V53.518H297.012V52.222H304.284L303.888 52.924C303.888 52.24 303.78 51.652 303.564 51.16C303.348 50.656 303.024 50.266 302.592 49.99C302.16 49.714 301.614 49.576 300.954 49.576C300.27 49.576 299.7 49.732 299.244 50.044C298.8 50.356 298.464 50.782 298.236 51.322C298.02 51.862 297.912 52.486 297.912 53.194C297.912 53.878 298.02 54.496 298.236 55.048C298.464 55.588 298.812 56.02 299.28 56.344C299.748 56.656 300.342 56.812 301.062 56.812C301.818 56.812 302.43 56.644 302.898 56.308C303.378 55.972 303.666 55.582 303.762 55.138H305.382C305.25 55.798 304.986 56.368 304.59 56.848C304.194 57.328 303.696 57.694 303.096 57.946C302.496 58.198 301.818 58.324 301.062 58.324ZM307.998 58V48.388H309.366V52.51H309.15C309.15 51.574 309.27 50.782 309.51 50.134C309.762 49.474 310.134 48.97 310.626 48.622C311.118 48.274 311.742 48.1 312.498 48.1H312.57C313.326 48.1 313.95 48.274 314.442 48.622C314.946 48.97 315.318 49.474 315.558 50.134C315.798 50.782 315.918 51.574 315.918 52.51H315.414C315.414 51.574 315.54 50.782 315.792 50.134C316.044 49.474 316.416 48.97 316.908 48.622C317.412 48.274 318.042 48.1 318.798 48.1H318.87C319.626 48.1 320.256 48.274 320.76 48.622C321.264 48.97 321.636 49.474 321.876 50.134C322.128 50.782 322.254 51.574 322.254 52.51V58H320.526V52.132C320.526 51.352 320.334 50.752 319.95 50.332C319.566 49.9 319.032 49.684 318.348 49.684C317.64 49.684 317.07 49.912 316.638 50.368C316.206 50.812 315.99 51.436 315.99 52.24V58H314.262V52.132C314.262 51.352 314.07 50.752 313.686 50.332C313.302 49.9 312.768 49.684 312.084 49.684C311.376 49.684 310.806 49.912 310.374 50.368C309.942 50.812 309.726 51.436 309.726 52.24V58H307.998ZM78.6725 81.288C77.5325 81.288 76.6565 80.916 76.0445 80.172C75.4325 79.428 75.1265 78.354 75.1265 76.95V71.37H76.8545V77.292C76.8545 78.048 77.0585 78.642 77.4665 79.074C77.8745 79.494 78.4265 79.704 79.1225 79.704C79.8425 79.704 80.4305 79.476 80.8865 79.02C81.3425 78.552 81.5705 77.916 81.5705 77.112V71.37H83.2985V81H81.9305V76.878H82.1465C82.1465 77.826 82.0205 78.63 81.7685 79.29C81.5165 79.938 81.1385 80.436 80.6345 80.784C80.1425 81.12 79.5125 81.288 78.7445 81.288H78.6725ZM86.6453 81V71.388H88.0133V75.51H87.7973C87.7973 74.574 87.9173 73.782 88.1573 73.134C88.4093 72.474 88.7813 71.97 89.2733 71.622C89.7653 71.274 90.3893 71.1 91.1453 71.1H91.2173C91.9733 71.1 92.5973 71.274 93.0893 71.622C93.5933 71.97 93.9653 72.474 94.2053 73.134C94.4453 73.782 94.5653 74.574 94.5653 75.51H94.0613C94.0613 74.574 94.1873 73.782 94.4393 73.134C94.6913 72.474 95.0633 71.97 95.5553 71.622C96.0593 71.274 96.6893 71.1 97.4453 71.1H97.5173C98.2733 71.1 98.9033 71.274 99.4073 71.622C99.9113 71.97 100.283 72.474 100.523 73.134C100.775 73.782 100.901 74.574 100.901 75.51V81H99.1733V75.132C99.1733 74.352 98.9813 73.752 98.5973 73.332C98.2133 72.9 97.6793 72.684 96.9953 72.684C96.2873 72.684 95.7173 72.912 95.2853 73.368C94.8533 73.812 94.6373 74.436 94.6373 75.24V81H92.9093V75.132C92.9093 74.352 92.7173 73.752 92.3333 73.332C91.9493 72.9 91.4153 72.684 90.7313 72.684C90.0233 72.684 89.4533 72.912 89.0213 73.368C88.5893 73.812 88.3733 74.436 88.3733 75.24V81H86.6453ZM109.879 81V78.12H109.591V74.79C109.591 74.13 109.417 73.632 109.069 73.296C108.733 72.96 108.235 72.792 107.575 72.792C107.203 72.792 106.819 72.798 106.423 72.81C106.027 72.822 105.649 72.834 105.289 72.846C104.929 72.858 104.617 72.876 104.353 72.9V71.388C104.617 71.364 104.893 71.346 105.181 71.334C105.481 71.31 105.787 71.298 106.099 71.298C106.411 71.286 106.711 71.28 106.999 71.28C107.983 71.28 108.787 71.4 109.411 71.64C110.035 71.868 110.497 72.246 110.797 72.774C111.097 73.302 111.247 74.016 111.247 74.916V81H109.879ZM106.729 81.252C106.009 81.252 105.385 81.132 104.857 80.892C104.341 80.64 103.939 80.28 103.651 79.812C103.375 79.344 103.237 78.78 103.237 78.12C103.237 77.436 103.387 76.866 103.687 76.41C103.999 75.954 104.449 75.612 105.037 75.384C105.625 75.144 106.333 75.024 107.161 75.024H109.771V76.32H107.089C106.393 76.32 105.859 76.488 105.487 76.824C105.115 77.16 104.929 77.592 104.929 78.12C104.929 78.648 105.115 79.074 105.487 79.398C105.859 79.722 106.393 79.884 107.089 79.884C107.497 79.884 107.887 79.812 108.259 79.668C108.631 79.512 108.937 79.26 109.177 78.912C109.429 78.552 109.567 78.06 109.591 77.436L110.059 78.12C109.999 78.804 109.831 79.38 109.555 79.848C109.291 80.304 108.919 80.652 108.439 80.892C107.971 81.132 107.401 81.252 106.729 81.252ZM118.766 81V67.86H121.106L124.994 76.626H125.282L129.152 67.86H131.51V81H129.746V69.786L129.872 69.822L126.146 78.282H123.986L120.242 69.822L120.386 69.786V81H118.766ZM140.887 81V78.12H140.599V74.79C140.599 74.13 140.425 73.632 140.077 73.296C139.741 72.96 139.243 72.792 138.583 72.792C138.211 72.792 137.827 72.798 137.431 72.81C137.035 72.822 136.657 72.834 136.297 72.846C135.937 72.858 135.625 72.876 135.361 72.9V71.388C135.625 71.364 135.901 71.346 136.189 71.334C136.489 71.31 136.795 71.298 137.107 71.298C137.419 71.286 137.719 71.28 138.007 71.28C138.991 71.28 139.795 71.4 140.419 71.64C141.043 71.868 141.505 72.246 141.805 72.774C142.105 73.302 142.255 74.016 142.255 74.916V81H140.887ZM137.737 81.252C137.017 81.252 136.393 81.132 135.865 80.892C135.349 80.64 134.947 80.28 134.659 79.812C134.383 79.344 134.245 78.78 134.245 78.12C134.245 77.436 134.395 76.866 134.695 76.41C135.007 75.954 135.457 75.612 136.045 75.384C136.633 75.144 137.341 75.024 138.169 75.024H140.779V76.32H138.097C137.401 76.32 136.867 76.488 136.495 76.824C136.123 77.16 135.937 77.592 135.937 78.12C135.937 78.648 136.123 79.074 136.495 79.398C136.867 79.722 137.401 79.884 138.097 79.884C138.505 79.884 138.895 79.812 139.267 79.668C139.639 79.512 139.945 79.26 140.185 78.912C140.437 78.552 140.575 78.06 140.599 77.436L141.067 78.12C141.007 78.804 140.839 79.38 140.563 79.848C140.299 80.304 139.927 80.652 139.447 80.892C138.979 81.132 138.409 81.252 137.737 81.252ZM137.557 69.984L139.141 66.42H140.959L138.961 69.984H137.557ZM152.789 84.6V78.138L153.473 76.77C153.437 77.814 153.227 78.672 152.843 79.344C152.459 80.016 151.961 80.514 151.349 80.838C150.749 81.162 150.089 81.324 149.369 81.324C148.685 81.324 148.055 81.192 147.479 80.928C146.915 80.664 146.423 80.298 146.003 79.83C145.595 79.362 145.277 78.828 145.049 78.228C144.821 77.616 144.707 76.968 144.707 76.284V75.96C144.707 75.276 144.821 74.64 145.049 74.052C145.277 73.464 145.601 72.948 146.021 72.504C146.441 72.048 146.939 71.694 147.515 71.442C148.091 71.19 148.733 71.064 149.441 71.064C150.257 71.064 150.971 71.238 151.583 71.586C152.207 71.934 152.699 72.438 153.059 73.098C153.419 73.758 153.617 74.562 153.653 75.51H153.149V71.388H154.517V84.6H152.789ZM149.675 79.74C150.263 79.74 150.797 79.608 151.277 79.344C151.757 79.08 152.141 78.702 152.429 78.21C152.717 77.706 152.861 77.118 152.861 76.446V75.618C152.861 74.958 152.711 74.4 152.411 73.944C152.123 73.476 151.733 73.122 151.241 72.882C150.761 72.63 150.239 72.504 149.675 72.504C149.027 72.504 148.457 72.654 147.965 72.954C147.485 73.254 147.107 73.68 146.831 74.232C146.567 74.772 146.435 75.402 146.435 76.122C146.435 76.842 146.573 77.478 146.849 78.03C147.125 78.57 147.509 78.99 148.001 79.29C148.493 79.59 149.051 79.74 149.675 79.74ZM161.167 81.288C160.027 81.288 159.151 80.916 158.539 80.172C157.927 79.428 157.621 78.354 157.621 76.95V71.37H159.349V77.292C159.349 78.048 159.553 78.642 159.961 79.074C160.369 79.494 160.921 79.704 161.617 79.704C162.337 79.704 162.925 79.476 163.381 79.02C163.837 78.552 164.065 77.916 164.065 77.112V71.37H165.793V81H164.425V76.878H164.641C164.641 77.826 164.515 78.63 164.263 79.29C164.011 79.938 163.633 80.436 163.129 80.784C162.637 81.12 162.007 81.288 161.239 81.288H161.167ZM169.607 81V71.388H171.335V81H169.607ZM168.131 72.756V71.388H171.335V72.756H168.131ZM170.093 69.84C169.709 69.84 169.421 69.738 169.229 69.534C169.049 69.33 168.959 69.072 168.959 68.76C168.959 68.448 169.049 68.19 169.229 67.986C169.421 67.782 169.709 67.68 170.093 67.68C170.477 67.68 170.759 67.782 170.939 67.986C171.131 68.19 171.227 68.448 171.227 68.76C171.227 69.072 171.131 69.33 170.939 69.534C170.759 69.738 170.477 69.84 170.093 69.84ZM174.677 81V71.388H176.045V75.51H175.829C175.829 74.562 175.955 73.764 176.207 73.116C176.471 72.456 176.867 71.958 177.395 71.622C177.923 71.274 178.589 71.1 179.393 71.1H179.465C180.677 71.1 181.571 71.478 182.147 72.234C182.735 72.99 183.029 74.082 183.029 75.51V81H181.301V75.15C181.301 74.406 181.091 73.812 180.671 73.368C180.251 72.912 179.675 72.684 178.943 72.684C178.187 72.684 177.575 72.918 177.107 73.386C176.639 73.854 176.405 74.478 176.405 75.258V81H174.677ZM192.004 81V78.12H191.716V74.79C191.716 74.13 191.542 73.632 191.194 73.296C190.858 72.96 190.36 72.792 189.7 72.792C189.328 72.792 188.944 72.798 188.548 72.81C188.152 72.822 187.774 72.834 187.414 72.846C187.054 72.858 186.742 72.876 186.478 72.9V71.388C186.742 71.364 187.018 71.346 187.306 71.334C187.606 71.31 187.912 71.298 188.224 71.298C188.536 71.286 188.836 71.28 189.124 71.28C190.108 71.28 190.912 71.4 191.536 71.64C192.16 71.868 192.622 72.246 192.922 72.774C193.222 73.302 193.372 74.016 193.372 74.916V81H192.004ZM188.854 81.252C188.134 81.252 187.51 81.132 186.982 80.892C186.466 80.64 186.064 80.28 185.776 79.812C185.5 79.344 185.362 78.78 185.362 78.12C185.362 77.436 185.512 76.866 185.812 76.41C186.124 75.954 186.574 75.612 187.162 75.384C187.75 75.144 188.458 75.024 189.286 75.024H191.896V76.32H189.214C188.518 76.32 187.984 76.488 187.612 76.824C187.24 77.16 187.054 77.592 187.054 78.12C187.054 78.648 187.24 79.074 187.612 79.398C187.984 79.722 188.518 79.884 189.214 79.884C189.622 79.884 190.012 79.812 190.384 79.668C190.756 79.512 191.062 79.26 191.302 78.912C191.554 78.552 191.692 78.06 191.716 77.436L192.184 78.12C192.124 78.804 191.956 79.38 191.68 79.848C191.416 80.304 191.044 80.652 190.564 80.892C190.096 81.132 189.526 81.252 188.854 81.252ZM204.653 81.324C203.969 81.324 203.339 81.198 202.763 80.946C202.187 80.694 201.683 80.34 201.251 79.884C200.831 79.428 200.501 78.9 200.261 78.3C200.033 77.7 199.919 77.052 199.919 76.356V76.032C199.919 75.348 200.033 74.706 200.261 74.106C200.489 73.506 200.807 72.978 201.215 72.522C201.635 72.066 202.127 71.712 202.691 71.46C203.267 71.196 203.903 71.064 204.599 71.064C205.331 71.064 205.997 71.22 206.597 71.532C207.197 71.832 207.689 72.306 208.073 72.954C208.457 73.602 208.673 74.442 208.721 75.474L208.001 74.322V67.86H209.729V81H208.361V76.734H208.865C208.817 77.826 208.589 78.714 208.181 79.398C207.773 80.07 207.257 80.562 206.633 80.874C206.021 81.174 205.361 81.324 204.653 81.324ZM204.887 79.812C205.475 79.812 206.009 79.68 206.489 79.416C206.969 79.152 207.353 78.774 207.641 78.282C207.929 77.778 208.073 77.19 208.073 76.518V75.69C208.073 75.03 207.923 74.472 207.623 74.016C207.335 73.548 206.945 73.194 206.453 72.954C205.973 72.702 205.445 72.576 204.869 72.576C204.233 72.576 203.669 72.726 203.177 73.026C202.697 73.326 202.319 73.746 202.043 74.286C201.779 74.826 201.647 75.462 201.647 76.194C201.647 76.926 201.785 77.568 202.061 78.12C202.337 78.66 202.721 79.08 203.213 79.38C203.705 79.668 204.263 79.812 204.887 79.812ZM217.136 81.324C216.296 81.324 215.57 81.18 214.958 80.892C214.346 80.604 213.848 80.226 213.464 79.758C213.08 79.278 212.792 78.744 212.6 78.156C212.42 77.568 212.33 76.968 212.33 76.356V76.032C212.33 75.408 212.42 74.802 212.6 74.214C212.792 73.626 213.08 73.098 213.464 72.63C213.848 72.15 214.334 71.772 214.922 71.496C215.522 71.208 216.224 71.064 217.028 71.064C218.072 71.064 218.93 71.292 219.602 71.748C220.286 72.192 220.79 72.768 221.114 73.476C221.45 74.184 221.618 74.94 221.618 75.744V76.518H213.086V75.222H220.358L219.962 75.924C219.962 75.24 219.854 74.652 219.638 74.16C219.422 73.656 219.098 73.266 218.666 72.99C218.234 72.714 217.688 72.576 217.028 72.576C216.344 72.576 215.774 72.732 215.318 73.044C214.874 73.356 214.538 73.782 214.31 74.322C214.094 74.862 213.986 75.486 213.986 76.194C213.986 76.878 214.094 77.496 214.31 78.048C214.538 78.588 214.886 79.02 215.354 79.344C215.822 79.656 216.416 79.812 217.136 79.812C217.892 79.812 218.504 79.644 218.972 79.308C219.452 78.972 219.74 78.582 219.836 78.138H221.456C221.324 78.798 221.06 79.368 220.664 79.848C220.268 80.328 219.77 80.694 219.17 80.946C218.57 81.198 217.892 81.324 217.136 81.324ZM229.823 81.072V79.452H233.099C233.891 79.452 234.593 79.326 235.205 79.074C235.829 78.81 236.357 78.45 236.789 77.994C237.233 77.538 237.569 77.004 237.797 76.392C238.025 75.78 238.139 75.12 238.139 74.412C238.139 73.668 238.025 72.996 237.797 72.396C237.569 71.784 237.233 71.256 236.789 70.812C236.357 70.356 235.829 70.008 235.205 69.768C234.593 69.528 233.891 69.408 233.099 69.408H229.823V67.788H232.919C234.107 67.788 235.139 67.974 236.015 68.346C236.891 68.706 237.617 69.198 238.193 69.822C238.781 70.434 239.219 71.124 239.507 71.892C239.795 72.648 239.939 73.422 239.939 74.214V74.61C239.939 75.378 239.795 76.146 239.507 76.914C239.219 77.682 238.781 78.378 238.193 79.002C237.617 79.626 236.891 80.13 236.015 80.514C235.139 80.886 234.107 81.072 232.919 81.072H229.823ZM228.419 81.072V67.788H230.183V81.072H228.419ZM242.873 81V71.388H244.601V81H242.873ZM241.397 72.756V71.388H244.601V72.756H241.397ZM243.359 69.84C242.975 69.84 242.687 69.738 242.495 69.534C242.315 69.33 242.225 69.072 242.225 68.76C242.225 68.448 242.315 68.19 242.495 67.986C242.687 67.782 242.975 67.68 243.359 67.68C243.743 67.68 244.025 67.782 244.205 67.986C244.397 68.19 244.493 68.448 244.493 68.76C244.493 69.072 244.397 69.33 244.205 69.534C244.025 69.738 243.743 69.84 243.359 69.84ZM247.942 81V71.388H249.31V75.51H249.094C249.094 74.562 249.22 73.764 249.472 73.116C249.736 72.456 250.132 71.958 250.66 71.622C251.188 71.274 251.854 71.1 252.658 71.1H252.73C253.942 71.1 254.836 71.478 255.412 72.234C256 72.99 256.294 74.082 256.294 75.51V81H254.566V75.15C254.566 74.406 254.356 73.812 253.936 73.368C253.516 72.912 252.94 72.684 252.208 72.684C251.452 72.684 250.84 72.918 250.372 73.386C249.904 73.854 249.67 74.478 249.67 75.258V81H247.942ZM259.456 81V67.86H261.184V75.708H260.752C260.752 74.76 260.872 73.944 261.112 73.26C261.364 72.564 261.748 72.03 262.264 71.658C262.78 71.286 263.44 71.1 264.244 71.1H264.316C265.468 71.1 266.338 71.484 266.926 72.252C267.514 73.008 267.808 74.094 267.808 75.51V81H266.08V75.15C266.08 74.37 265.858 73.764 265.414 73.332C264.982 72.9 264.418 72.684 263.722 72.684C262.954 72.684 262.336 72.942 261.868 73.458C261.412 73.962 261.184 74.628 261.184 75.456V81H259.456ZM275.055 81.324C274.215 81.324 273.489 81.18 272.877 80.892C272.265 80.604 271.767 80.226 271.383 79.758C270.999 79.278 270.711 78.744 270.519 78.156C270.339 77.568 270.249 76.968 270.249 76.356V76.032C270.249 75.408 270.339 74.802 270.519 74.214C270.711 73.626 270.999 73.098 271.383 72.63C271.767 72.15 272.253 71.772 272.841 71.496C273.441 71.208 274.143 71.064 274.947 71.064C275.991 71.064 276.849 71.292 277.521 71.748C278.205 72.192 278.709 72.768 279.033 73.476C279.369 74.184 279.537 74.94 279.537 75.744V76.518H271.005V75.222H278.277L277.881 75.924C277.881 75.24 277.773 74.652 277.557 74.16C277.341 73.656 277.017 73.266 276.585 72.99C276.153 72.714 275.607 72.576 274.947 72.576C274.263 72.576 273.693 72.732 273.237 73.044C272.793 73.356 272.457 73.782 272.229 74.322C272.013 74.862 271.905 75.486 271.905 76.194C271.905 76.878 272.013 77.496 272.229 78.048C272.457 78.588 272.805 79.02 273.273 79.344C273.741 79.656 274.335 79.812 275.055 79.812C275.811 79.812 276.423 79.644 276.891 79.308C277.371 78.972 277.659 78.582 277.755 78.138H279.375C279.243 78.798 278.979 79.368 278.583 79.848C278.187 80.328 277.689 80.694 277.089 80.946C276.489 81.198 275.811 81.324 275.055 81.324ZM282.459 81V71.388H284.187V81H282.459ZM280.983 72.756V71.388H284.187V72.756H280.983ZM282.945 69.84C282.561 69.84 282.273 69.738 282.081 69.534C281.901 69.33 281.811 69.072 281.811 68.76C281.811 68.448 281.901 68.19 282.081 67.986C282.273 67.782 282.561 67.68 282.945 67.68C283.329 67.68 283.611 67.782 283.791 67.986C283.983 68.19 284.079 68.448 284.079 68.76C284.079 69.072 283.983 69.33 283.791 69.534C283.611 69.738 283.329 69.84 282.945 69.84ZM287.528 81V71.388H288.896V75.348H288.824C288.824 73.944 289.13 72.918 289.742 72.27C290.366 71.61 291.296 71.28 292.532 71.28H292.856V72.828H292.244C291.284 72.828 290.546 73.086 290.03 73.602C289.514 74.106 289.256 74.838 289.256 75.798V81H287.528ZM299.233 81.324C298.393 81.324 297.655 81.18 297.019 80.892C296.383 80.604 295.843 80.226 295.399 79.758C294.967 79.278 294.637 78.744 294.409 78.156C294.193 77.568 294.085 76.968 294.085 76.356V76.032C294.085 75.42 294.199 74.82 294.427 74.232C294.655 73.632 294.991 73.098 295.435 72.63C295.879 72.15 296.419 71.772 297.055 71.496C297.691 71.208 298.417 71.064 299.233 71.064C300.049 71.064 300.775 71.208 301.411 71.496C302.047 71.772 302.587 72.15 303.031 72.63C303.475 73.098 303.811 73.632 304.039 74.232C304.267 74.82 304.381 75.42 304.381 76.032V76.356C304.381 76.968 304.267 77.568 304.039 78.156C303.823 78.744 303.493 79.278 303.049 79.758C302.617 80.226 302.083 80.604 301.447 80.892C300.811 81.18 300.073 81.324 299.233 81.324ZM299.233 79.776C299.953 79.776 300.565 79.62 301.069 79.308C301.585 78.984 301.975 78.552 302.239 78.012C302.515 77.472 302.653 76.866 302.653 76.194C302.653 75.51 302.515 74.898 302.239 74.358C301.963 73.818 301.567 73.392 301.051 73.08C300.547 72.768 299.941 72.612 299.233 72.612C298.537 72.612 297.931 72.768 297.415 73.08C296.899 73.392 296.503 73.818 296.227 74.358C295.951 74.898 295.813 75.51 295.813 76.194C295.813 76.866 295.945 77.472 296.209 78.012C296.485 78.552 296.875 78.984 297.379 79.308C297.895 79.62 298.513 79.776 299.233 79.776Z" fill="#3E3E3E"/>
<rect x="38" y="35" width="300" height="2" fill="#C9C9C9"/>
<g clip-path="url(#clip1_1511_919)">
<path d="M40.5042 62.8938L39.1835 66.1962L26.4339 68.1142L27.7546 64.8119L40.5042 62.8938Z" fill="#5EAF5F"/>
<path d="M27.7546 64.8119L26.4339 68.1141L7.58727 44.3296L8.90804 41.0274L27.7546 64.8119Z" fill="#7BC578"/>
<path d="M40.5042 62.8938L27.7546 64.8119L8.90804 41.0274L21.6577 39.1093L40.5042 62.8938Z" fill="#98D095"/>
<path d="M31.8819 58.7871L31.5348 58.8393C31.6954 59.1627 31.5891 59.4358 31.2471 59.4872L30.9673 59.1341C31.1224 59.1108 31.1263 58.9198 30.9746 58.7283C30.8196 58.5326 30.546 58.3833 30.3909 58.4067C30.2361 58.4299 30.2319 58.621 30.387 58.8168C30.7004 59.2123 30.6224 59.5812 30.2164 59.6423C29.8744 59.6938 29.4041 59.5074 29.0778 59.2089L28.7306 59.2611L28.4508 58.9081L28.798 58.8558C28.6322 58.5332 28.7384 58.2601 29.0804 58.2087L29.3602 58.5618C29.2051 58.5851 29.2064 58.7753 29.3614 58.971C29.5131 59.1625 29.7816 59.3125 29.9366 59.2892C30.0968 59.265 30.0953 59.0748 29.9436 58.8835C29.6301 58.4878 29.7051 58.1147 30.1111 58.0536C30.4531 58.0022 30.9234 58.1885 31.255 58.4862L31.6021 58.4339L31.8819 58.7871Z" fill="#46A046"/>
<path d="M20.9637 45.0081L20.6165 45.0603C20.7771 45.3838 20.6742 45.6611 20.3323 45.7125L20.0491 45.3552C20.2041 45.3319 20.2115 45.145 20.0564 44.9494C19.9014 44.7537 19.6277 44.6044 19.4727 44.6278C19.3179 44.651 19.3136 44.8421 19.4688 45.0378C19.7822 45.4334 19.7075 45.8065 19.3015 45.8676C18.9596 45.919 18.4858 45.7285 18.1594 45.43L17.8123 45.4822L17.5325 45.1291L17.8797 45.0769C17.7139 44.7542 17.8202 44.4812 18.1622 44.4297L18.442 44.7828C18.2869 44.8061 18.2881 44.9964 18.4432 45.1921C18.5982 45.3877 18.8633 45.5336 19.0184 45.5103C19.1786 45.4861 19.1804 45.3002 19.0254 45.1045C18.7119 44.7088 18.7869 44.3358 19.1929 44.2747C19.5348 44.2233 20.0052 44.4095 20.3367 44.7072L20.6839 44.655L20.9637 45.0081Z" fill="#46A046"/>
<path d="M21.8877 41.4743C22.3159 42.0146 22.1149 42.5305 21.4365 42.6326C20.7637 42.7338 19.8695 42.3826 19.4414 41.8424C19.0167 41.3064 19.2198 40.7854 19.8926 40.6841C20.571 40.5821 21.463 40.9383 21.8877 41.4743Z" fill="#46A046"/>
<path d="M28.9428 51.8113L28.0831 51.9406C28.4867 52.7369 28.2248 53.4096 27.3754 53.5373L26.6844 52.6652C27.0689 52.6074 27.075 52.1399 26.6941 51.6591C26.3166 51.1827 25.6464 50.8122 25.2619 50.87C24.8774 50.9278 24.8746 51.3996 25.2522 51.8761C26.0274 52.8545 25.8425 53.7679 24.8384 53.919C23.9946 54.0459 22.8305 53.5878 22.0261 52.8518L21.1609 52.9819L20.4698 52.1099L21.3351 51.9797C20.926 51.1842 21.19 50.5065 22.0339 50.3796L22.7249 51.2517C22.3403 51.3095 22.3376 51.7813 22.7152 52.2578C23.0961 52.7384 23.7628 53.1048 24.1474 53.0469C24.5319 52.9891 24.538 52.5215 24.1571 52.0408C23.3852 51.0666 23.5719 50.1482 24.5708 49.9979C25.4202 49.8702 26.5821 50.3334 27.392 51.0685L28.2518 50.9391L28.9428 51.8113Z" fill="#46A046"/>
<path d="M14.5222 42.5824C14.9503 43.1227 14.7493 43.6385 14.0712 43.7405C13.3981 43.8418 12.5095 43.4898 12.0814 42.9496C11.6567 42.4136 11.8542 41.8934 12.5274 41.7922C13.2055 41.6902 14.0975 42.0464 14.5222 42.5824Z" fill="#46A046"/>
<path d="M37.3331 60.9665C37.7612 61.5068 37.5602 62.0227 36.8819 62.1247C36.209 62.2259 35.3149 61.8748 34.8868 61.3346C34.4621 60.7985 34.6685 60.2819 35.3414 60.1806C36.0198 60.0785 36.9084 60.4305 37.3331 60.9665Z" fill="#46A046"/>
<path d="M29.9676 62.0746C30.3956 62.6149 30.1946 63.1308 29.5166 63.2328C28.8434 63.334 27.9548 62.9821 27.5267 62.4418C27.102 61.9058 27.3029 61.3899 27.9761 61.2886C28.6542 61.1866 29.5428 61.5385 29.9676 62.0746Z" fill="#46A046"/>
<path d="M21.2926 40.0594L38.8716 62.2444L28.1252 63.861L20.8846 54.7233L10.5462 41.676L21.2926 40.0594ZM19.3662 52.7616C21.2269 55.1098 25.1353 56.6548 28.0782 56.2121C31.0212 55.7694 31.9093 53.5028 30.0486 51.1546C28.1912 48.8106 24.2795 47.2612 21.3365 47.704C18.3935 48.1467 17.5088 50.4176 19.3662 52.7616ZM14.3057 44.0291L18.1261 48.8202C18.6245 48.031 19.5924 47.4569 20.9758 47.2488C22.3592 47.0406 23.9283 47.2332 25.4435 47.7194L21.6446 42.925C22.5417 42.7901 22.804 42.1174 22.2511 41.4197C21.7017 40.7263 20.5395 40.2631 19.6634 40.3949C18.7874 40.5267 18.5341 41.2028 19.0836 41.8962L14.9024 42.549C14.3361 41.8343 13.1738 41.3712 12.3034 41.5021C11.4222 41.6347 11.1688 42.3109 11.7183 43.0043C12.2711 43.7019 13.4245 44.1617 14.3057 44.0291ZM30.3309 62.0199L34.5154 61.3714C35.0817 62.086 36.2351 62.5458 37.111 62.414C37.9871 62.2822 38.2493 61.6095 37.6964 60.9118C37.147 60.2185 35.9882 59.7596 35.1121 59.8914L31.292 55.1002C30.7847 55.886 29.8223 56.4592 28.4389 56.6673C27.0555 56.8754 25.4809 56.6838 23.9745 56.201L27.7735 60.9954C26.8709 61.1312 26.6142 61.803 27.1637 62.4964C27.7165 63.1941 28.8698 63.6538 29.751 63.5213C30.6215 63.3903 30.8837 62.7176 30.3309 62.0199ZM23.5352 43.6214L22.7395 43.7411L24.7755 46.3106L25.5712 46.1908L23.5352 43.6214ZM33.5568 56.2688L32.7611 56.3885L34.7937 58.9537L35.5895 58.834L33.5568 56.2688ZM15.861 47.6516L16.6515 47.5327L14.6156 44.9633L13.825 45.0822L15.861 47.6516ZM25.8792 60.2948L26.6698 60.1758L24.6371 57.6106L23.8466 57.7296L25.8792 60.2948Z" fill="#46A046"/>
<path d="M33.088 53.5345L20.3384 55.4525L19.9703 54.988L32.72 53.07L33.088 53.5345Z" fill="#86AEDC"/>
<path d="M35.2351 56.2442L22.4855 58.1622L20.3384 55.4525L33.088 53.5345L35.2351 56.2442Z" fill="#E3E6F0"/>
<path d="M35.601 56.7059L22.8514 58.6239L22.4855 58.1622L35.2351 56.2442L35.601 56.7059Z" fill="#86AEDC"/>
<path d="M20.3382 55.4523L19.0064 58.7513L18.6385 58.2871L19.9703 54.988L20.3382 55.4523Z" fill="#678CC8"/>
<path d="M22.4835 58.1597L21.1517 61.4587L19.0064 58.7513L20.3382 55.4523L22.4835 58.1597Z" fill="#D4DBE9"/>
<path d="M22.8514 58.6239L21.5196 61.923L21.1517 61.4587L22.4835 58.1597L22.8514 58.6239Z" fill="#678CC8"/>
<path d="M42.9327 57.6542L41.612 60.9565L28.8623 62.8746L30.183 59.5723L42.9327 57.6542Z" fill="#5EAF5F"/>
<path d="M30.183 59.5723L28.8623 62.8746L10.0157 39.09L11.3365 35.7877L30.183 59.5723Z" fill="#7BC578"/>
<path d="M42.9327 57.6542L30.183 59.5723L11.3365 35.7877L24.0862 33.8697L42.9327 57.6542Z" fill="#98D095"/>
<path d="M34.3104 53.5475L33.9633 53.5997C34.1239 53.9231 34.0175 54.1962 33.6756 54.2476L33.3958 53.8945C33.5508 53.8712 33.5548 53.6802 33.4031 53.4887C33.248 53.2931 32.9744 53.1437 32.8194 53.1671C32.6646 53.1903 32.6604 53.3815 32.8155 53.5771C33.1289 53.9727 33.0509 54.3416 32.6448 54.4027C32.3029 54.4541 31.8326 54.2678 31.5062 53.9693L31.159 54.0215L30.8793 53.6684L31.2264 53.6162C31.0607 53.2936 31.1669 53.0205 31.5088 52.9691L31.7887 53.3221C31.6336 53.3454 31.6348 53.5357 31.7899 53.7314C31.9416 53.9228 32.21 54.0729 32.3651 54.0496C32.5253 54.0255 32.5238 53.8353 32.3721 53.6438C32.0586 53.2482 32.1336 52.8751 32.5396 52.814C32.8815 52.7626 33.3519 52.9489 33.6835 53.2466L34.0306 53.1944L34.3104 53.5475Z" fill="#46A046"/>
<path d="M23.3922 39.7685L23.045 39.8207C23.2056 40.1441 23.1027 40.4215 22.7607 40.4729L22.4776 40.1156C22.6326 40.0922 22.6399 39.9054 22.4848 39.7098C22.3298 39.5141 22.0561 39.3648 21.9011 39.3882C21.7464 39.4114 21.7421 39.6025 21.8972 39.7982C22.2107 40.1938 22.136 40.5669 21.73 40.628C21.388 40.6794 20.9143 40.4888 20.5879 40.1903L20.2408 40.2426L19.961 39.8895L20.3082 39.8372C20.1423 39.5147 20.2487 39.2416 20.5906 39.1901L20.8704 39.5432C20.7154 39.5665 20.7166 39.7568 20.8717 39.9524C21.0267 40.1482 21.2918 40.294 21.4468 40.2707C21.607 40.2466 21.6089 40.0605 21.4538 39.8649C21.1403 39.4692 21.2154 39.0961 21.6214 39.0351C21.9633 38.9836 22.4336 39.17 22.7652 39.4676L23.1124 39.4154L23.3922 39.7685Z" fill="#46A046"/>
<path d="M24.3162 36.2347C24.7443 36.775 24.5434 37.2909 23.865 37.3929C23.1922 37.4941 22.298 37.143 21.8699 36.6028C21.4452 36.0668 21.6483 35.5458 22.3211 35.4446C22.9995 35.3425 23.8915 35.6987 24.3162 36.2347Z" fill="#46A046"/>
<path d="M31.3713 46.5717L30.5115 46.701C30.9152 47.4973 30.6532 48.17 29.8039 48.2977L29.1128 47.4256C29.4974 47.3678 29.5035 46.9003 29.1226 46.4195C28.7451 45.9431 28.0749 45.5725 27.6903 45.6304C27.3058 45.6882 27.3031 46.16 27.6806 46.6365C28.4559 47.6149 28.271 48.5283 27.2669 48.6794C26.423 48.8063 25.259 48.3482 24.4546 47.6122L23.5893 47.7424L22.8983 46.8703L23.7635 46.7401C23.3544 45.9446 23.6185 45.2669 24.4623 45.14L25.1534 46.0121C24.7688 46.0699 24.7661 46.5417 25.1436 47.0182C25.5245 47.4988 26.1913 47.8651 26.5759 47.8073C26.9604 47.7494 26.9665 47.2819 26.5856 46.8012C25.8137 45.827 26.0004 44.9085 26.9993 44.7583C27.8487 44.6306 29.0106 45.0937 29.8205 45.8289L30.6802 45.6995L31.3713 46.5717Z" fill="#46A046"/>
<path d="M16.9507 37.3428C17.3787 37.883 17.1778 38.3989 16.4997 38.5009C15.8266 38.6022 14.9379 38.2502 14.5099 37.71C14.0851 37.174 14.2827 36.6538 14.9559 36.5526C15.6339 36.4506 16.5259 36.8068 16.9507 37.3428Z" fill="#46A046"/>
<path d="M39.7615 55.7269C40.1897 56.2672 39.9887 56.7831 39.3103 56.8852C38.6374 56.9863 37.7433 56.6352 37.3153 56.095C36.8906 55.5589 37.097 55.0422 37.7698 54.941C38.4483 54.8389 39.3368 55.1909 39.7615 55.7269Z" fill="#46A046"/>
<path d="M32.396 56.835C32.8241 57.3753 32.6231 57.8911 31.945 57.9931C31.2719 58.0944 30.3833 57.7424 29.9552 57.2022C29.5305 56.6662 29.7314 56.1503 30.4046 56.049C31.0826 55.947 31.9712 56.299 32.396 56.835Z" fill="#46A046"/>
<path d="M23.7211 34.8197L41.3001 57.0048L30.5537 58.6214L23.3131 49.4837L12.9746 36.4364L23.7211 34.8197ZM21.7947 47.5219C23.6554 49.8702 27.5637 51.4152 30.5067 50.9725C33.4497 50.5298 34.3378 48.2632 32.4771 45.9149C30.6196 43.5709 26.7079 42.0216 23.765 42.4644C20.822 42.9071 19.9373 45.1779 21.7947 47.5219ZM16.7342 38.7894L20.5546 43.5806C21.053 42.7914 22.0209 42.2173 23.4043 42.0092C24.7877 41.801 26.3568 41.9935 27.872 42.4798L24.0731 37.6854C24.9702 37.5504 25.2324 36.8778 24.6796 36.1801C24.1302 35.4866 22.9679 35.0235 22.0919 35.1553C21.2159 35.2871 20.9625 35.9632 21.512 36.6566L17.3309 37.3094C16.7646 36.5947 15.6023 36.1316 14.7318 36.2625C13.8507 36.3951 13.5973 37.0712 14.1468 37.7646C14.6996 38.4623 15.8529 38.922 16.7342 38.7894ZM32.7594 56.7803L36.9439 56.1318C37.5102 56.8464 38.6635 57.3062 39.5395 57.1744C40.4156 57.0426 40.6778 56.3699 40.1249 55.6722C39.5755 54.9789 38.4166 54.5199 37.5406 54.6517L33.7205 49.8605C33.2132 50.6463 32.2508 51.2196 30.8674 51.4277C29.484 51.6358 27.9094 51.4442 26.403 50.9614L30.202 55.7557C29.2994 55.8916 29.0427 56.5634 29.5921 57.2568C30.1449 57.9545 31.2983 58.4142 32.1795 58.2816C33.0499 58.1507 33.3122 57.478 32.7594 56.7803ZM25.9637 38.3818L25.1679 38.5015L27.204 41.0709L27.9996 40.9512L25.9637 38.3818ZM35.9853 51.0291L35.1895 51.1488L37.2222 53.714L38.0179 53.5944L35.9853 51.0291ZM18.2895 42.412L19.08 42.2931L17.044 39.7236L16.2535 39.8425L18.2895 42.412ZM28.3077 55.0551L29.0983 54.9362L27.0656 52.371L26.2751 52.4899L28.3077 55.0551Z" fill="#46A046"/>
<path d="M35.5165 48.2949L22.7668 50.2129L22.3988 49.7484L35.1485 47.8304L35.5165 48.2949Z" fill="#86AEDC"/>
<path d="M37.6636 51.0046L24.9139 52.9226L22.7668 50.2129L35.5165 48.2949L37.6636 51.0046Z" fill="#E3E6F0"/>
<path d="M38.0295 51.4663L25.2798 53.3843L24.9139 52.9226L37.6636 51.0046L38.0295 51.4663Z" fill="#86AEDC"/>
<path d="M22.7666 50.2127L21.4349 53.5117L21.067 53.0475L22.3988 49.7484L22.7666 50.2127Z" fill="#678CC8"/>
<path d="M24.912 52.9201L23.5802 56.2191L21.4349 53.5117L22.7666 50.2127L24.912 52.9201Z" fill="#D4DBE9"/>
<path d="M25.2798 53.3843L23.9481 56.6834L23.5802 56.2191L24.912 52.9201L25.2798 53.3843Z" fill="#678CC8"/>
</g>
<defs>
<radialGradient id="paint0_radial_1511_919" cx="0" cy="0" r="1" gradientUnits="userSpaceOnUse" gradientTransform="translate(350.703 58.899) rotate(15.3718) scale(36.7595)">
<stop stop-color="#FAE100"/>
<stop offset="0.0544" stop-color="#FADC04"/>
<stop offset="0.1167" stop-color="#FBCE0E"/>
<stop offset="0.1829" stop-color="#FCB720"/>
<stop offset="0.2514" stop-color="#FE9838"/>
<stop offset="0.3054" stop-color="#FF7950"/>
<stop offset="0.4922" stop-color="#FF1C74"/>
<stop offset="1" stop-color="#6C1CD1"/>
</radialGradient>
<linearGradient id="paint1_linear_1511_919" x1="360.324" y1="46.3533" x2="314.295" y2="0.75722" gradientUnits="userSpaceOnUse">
<stop stop-color="#A1B5D8" stop-opacity="0"/>
<stop offset="0.3094" stop-color="#90A2BD" stop-opacity="0.309804"/>
<stop offset="0.7554" stop-color="#7C8B9C" stop-opacity="0.756863"/>
<stop offset="1" stop-color="#748290"/>
</linearGradient>
<linearGradient id="paint2_linear_1511_919" x1="360.106" y1="61.7891" x2="358.729" y2="66.7989" gradientUnits="userSpaceOnUse">
<stop stop-color="#FAE100" stop-opacity="0"/>
<stop offset="0.3068" stop-color="#FCA800" stop-opacity="0.305882"/>
<stop offset="0.6275" stop-color="#FE7300" stop-opacity="0.627451"/>
<stop offset="0.8685" stop-color="#FF5200" stop-opacity="0.866667"/>
<stop offset="1" stop-color="#FF4500"/>
</linearGradient>
<linearGradient id="paint3_linear_1511_919" x1="362.174" y1="47.1112" x2="356.407" y2="36.9704" gradientUnits="userSpaceOnUse">
<stop stop-color="#833AB4" stop-opacity="0"/>
<stop offset="1" stop-color="#833AB4"/>
</linearGradient>
<linearGradient id="paint4_linear_1511_919" x1="365.781" y1="64.4514" x2="366.957" y2="44.6442" gradientUnits="userSpaceOnUse">
<stop stop-color="#833AB4" stop-opacity="0"/>
<stop offset="1" stop-color="#833AB4"/>
</linearGradient>
<linearGradient id="paint5_linear_1511_919" x1="368.902" y1="59.0086" x2="357.34" y2="38.6789" gradientUnits="userSpaceOnUse">
<stop stop-color="#833AB4" stop-opacity="0"/>
<stop offset="1" stop-color="#833AB4"/>
</linearGradient>
<linearGradient id="paint6_linear_1511_919" x1="372.738" y1="49.6854" x2="368.914" y2="42.9628" gradientUnits="userSpaceOnUse">
<stop stop-color="#833AB4" stop-opacity="0"/>
<stop offset="1" stop-color="#833AB4"/>
</linearGradient>
<linearGradient id="paint7_linear_1511_919" x1="371.611" y1="44.9051" x2="355.036" y2="54.3321" gradientUnits="userSpaceOnUse">
<stop stop-color="#833AB4"/>
<stop offset="0.0922" stop-color="#9C3495"/>
<stop offset="0.2927" stop-color="#DC2546"/>
<stop offset="0.392" stop-color="#FD1D1D"/>
<stop offset="0.5589" stop-color="#FC6831"/>
<stop offset="0.6887" stop-color="#FC9B40"/>
<stop offset="0.7521" stop-color="#FCAF45"/>
<stop offset="0.7806" stop-color="#FDB750"/>
<stop offset="0.8656" stop-color="#FECB6A"/>
<stop offset="0.9415" stop-color="#FFD87A"/>
<stop offset="1" stop-color="#FFDC80"/>
</linearGradient>
<clipPath id="clip0_1511_919">
<rect width="33.3322" height="33.3322" fill="white" transform="translate(351.836 29) rotate(15.3718)"/>
</clipPath>
<clipPath id="clip1_1511_919">
<rect width="39" height="39" fill="white" transform="translate(14.3614 26) rotate(21.6072)"/>
</clipPath>
</defs>
</svg>
