<svg width="15" height="15" viewBox="0 0 15 15" fill="none" xmlns="http://www.w3.org/2000/svg">
<path d="M12.3516 1.71087C12.3199 1.67717 12.2785 1.65412 12.2332 1.64489C12.1879 1.63565 12.1408 1.64069 12.0984 1.6593L0.848439 6.3468C0.805592 6.36432 0.76891 6.39416 0.743041 6.43255C0.717171 6.47094 0.70328 6.51614 0.703127 6.56243C0.702935 6.6088 0.716688 6.65415 0.742601 6.6926C0.768514 6.73105 0.80539 6.76083 0.848439 6.77805L3.51563 7.8468V10.3124C3.51532 10.3433 3.52118 10.3739 3.53285 10.4025C3.54452 10.4311 3.56177 10.457 3.5836 10.4788C3.60542 10.5007 3.63138 10.5179 3.65995 10.5296C3.68852 10.5413 3.71914 10.5471 3.75 10.5468H6.21563L7.28438 13.214C7.30161 13.257 7.33138 13.2939 7.36983 13.3198C7.40828 13.3457 7.45364 13.3595 7.5 13.3593C7.54629 13.3591 7.59149 13.3453 7.62988 13.3194C7.66827 13.2935 7.69811 13.2568 7.71563 13.214L7.9125 12.7452C7.93518 12.688 7.93465 12.6241 7.91102 12.5672C7.88739 12.5103 7.84252 12.4649 7.78594 12.4406C7.73815 12.42 7.6848 12.4162 7.63458 12.4298C7.58436 12.4434 7.54023 12.4737 7.50938 12.5156L6.59063 10.2234V10.2187L5.90156 8.49368L11.5172 2.87805L10.4109 5.53587C10.3987 5.56385 10.3922 5.59397 10.3917 5.62449C10.3913 5.65501 10.3969 5.68533 10.4082 5.71367C10.4195 5.74201 10.4364 5.76782 10.4578 5.7896C10.4792 5.81138 10.5047 5.8287 10.5328 5.84055C10.5614 5.85287 10.5921 5.85936 10.6233 5.85965C10.6544 5.85994 10.6852 5.85402 10.7141 5.84224C10.7429 5.83045 10.769 5.81304 10.791 5.79102C10.813 5.769 10.8304 5.74281 10.8422 5.71399L12.4031 1.96399C12.4219 1.92168 12.4271 1.87455 12.4179 1.82918C12.4086 1.7838 12.3854 1.74244 12.3516 1.71087ZM6.02813 10.0781H3.98438V8.0343L5.44688 8.61555L6.02813 10.0781ZM5.56875 8.16086L1.55625 6.55774L11.1844 2.54524L5.56875 8.16086Z" fill="black"/>
<path d="M10.8094 6.32812C10.114 6.32812 9.43434 6.53431 8.8562 6.92061C8.27806 7.30692 7.82745 7.85598 7.56136 8.49838C7.29527 9.14078 7.22565 9.84765 7.3613 10.5296C7.49695 11.2116 7.83178 11.838 8.32345 12.3297C8.81512 12.8213 9.44154 13.1562 10.1235 13.2918C10.8055 13.4275 11.5123 13.3579 12.1547 13.0918C12.7971 12.8257 13.3462 12.3751 13.7325 11.7969C14.1188 11.2188 14.325 10.5391 14.325 9.84375C14.3247 8.91145 13.9542 8.01744 13.2949 7.3582C12.6357 6.69897 11.7417 6.32846 10.8094 6.32812ZM12.3797 9.07031L10.5047 10.9453C10.4835 10.9675 10.458 10.9852 10.4298 10.9972C10.4016 11.0093 10.3713 11.0156 10.3406 11.0156C10.3092 11.0156 10.2782 11.0094 10.2492 10.9973C10.2203 10.9853 10.194 10.9676 10.1719 10.9453L9.23437 10.0078C9.19155 9.96394 9.16758 9.90506 9.16758 9.84375C9.16758 9.78244 9.19155 9.72356 9.23437 9.67969C9.256 9.65744 9.28187 9.63975 9.31045 9.62768C9.33904 9.6156 9.36975 9.60938 9.40078 9.60938C9.43181 9.60938 9.46252 9.6156 9.4911 9.62768C9.51969 9.63975 9.54556 9.65744 9.56719 9.67969L10.3406 10.4484L12.0469 8.74219C12.0685 8.71994 12.0944 8.70225 12.123 8.69018C12.1515 8.6781 12.1823 8.67188 12.2133 8.67188C12.2443 8.67188 12.275 8.6781 12.3036 8.69018C12.3322 8.70225 12.3581 8.71994 12.3797 8.74219C12.4019 8.76335 12.4196 8.7888 12.4317 8.817C12.4438 8.8452 12.45 8.87557 12.45 8.90625C12.45 8.93693 12.4438 8.9673 12.4317 8.9955C12.4196 9.0237 12.4019 9.04915 12.3797 9.07031Z" fill="black"/>
</svg>
